<svg xmlns="http://www.w3.org/2000/svg" width="9" height="14" viewBox="0 0 9 14" fill="none">
  <path d="M4.28497 6.03532C5.86914 6.03532 7.15569 4.68096 7.15569 3.01892C7.15569 1.35687 5.86914 0 4.28497 0C2.70079 0 1.41425 1.35435 1.41425 3.0164C1.41425 4.67844 2.70319 6.0328 4.28497 6.0328V6.03532ZM4.28497 0.716268C5.4923 0.716268 6.47641 1.7478 6.47641 3.01892C6.47641 4.29004 5.4947 5.32157 4.28497 5.32157C3.07523 5.32157 2.09352 4.29004 2.09352 3.01892C2.09352 1.7478 3.07763 0.713746 4.28497 0.713746V0.716268Z" fill="#333333"/>
  <path d="M0.715773 14H7.96218C8.159 14 8.34143 13.9167 8.47824 13.7679C8.61266 13.6191 8.68706 13.4148 8.67746 13.208C8.53585 9.9142 6.89646 7.94446 4.28737 7.94446C1.67828 7.94446 0.130107 9.86628 0.000492553 13.2131C-0.00670825 13.4199 0.0652998 13.6216 0.199715 13.7704C0.33653 13.9192 0.518951 14 0.713372 14H0.715773ZM4.28737 8.66073C7.45813 8.66073 7.93818 11.8638 7.99819 13.2408C7.99819 13.2585 7.99339 13.2686 7.98619 13.2761C7.97658 13.2862 7.96938 13.2862 7.96218 13.2862H0.715773C0.715773 13.2862 0.701371 13.2862 0.69177 13.2761C0.686969 13.2711 0.679769 13.2585 0.679769 13.2433C0.746976 11.5334 1.30144 8.66325 4.28497 8.66325L4.28737 8.66073Z" fill="#333333"/>
</svg>