<svg width="31" height="32" viewBox="0 0 31 32" fill="none" xmlns="http://www.w3.org/2000/svg">
<path d="M9.87709 3.08279L10.8185 9.72052L11.1064 11.7454C11.1315 11.9221 11.2817 12.0534 11.4569 12.0534H21.5971C21.7924 12.0534 21.9526 11.8944 21.9526 11.6949C21.9526 11.4955 21.7949 11.3364 21.5971 11.3364H11.7649L11.5796 10.026H21.6071C21.7899 10.026 21.9426 9.88463 21.9601 9.70284L22.5885 3.06512C22.5986 2.96413 22.566 2.86566 22.4984 2.78991C22.4308 2.71417 22.3357 2.67377 22.2355 2.67377H10.5381L10.2026 0.308027C10.1775 0.13129 10.0273 0 9.85205 0H7.8691C7.6713 0.00252481 7.51357 0.161588 7.51357 0.361048C7.51357 0.560508 7.6713 0.719571 7.8691 0.719571H9.54409L9.87959 3.08532L9.87709 3.08279ZM21.8449 3.39082L21.2841 9.3115H11.4795L10.6407 3.39082H21.8474H21.8449Z" fill="#333333"/>
<path d="M15.2375 14.313C15.2375 13.6616 14.7117 13.1289 14.0632 13.1289C13.4148 13.1289 12.889 13.6591 12.889 14.313C12.889 14.967 13.4148 15.4972 14.0632 15.4972C14.7117 15.4972 15.2375 14.967 15.2375 14.313ZM13.6001 14.313C13.6001 14.0555 13.8079 13.846 14.0632 13.846C14.3186 13.846 14.5264 14.0555 14.5264 14.313C14.5264 14.5706 14.3186 14.7801 14.0632 14.7801C13.8079 14.7801 13.6001 14.5706 13.6001 14.313Z" fill="#333333"/>
<path d="M19.8971 14.313C19.8971 13.6616 19.3713 13.1289 18.7228 13.1289C18.0743 13.1289 17.5486 13.6591 17.5486 14.313C17.5486 14.967 18.0743 15.4972 18.7228 15.4972C19.3713 15.4972 19.8971 14.967 19.8971 14.313ZM18.2596 14.313C18.2596 14.0555 18.4674 13.846 18.7228 13.846C18.9782 13.846 19.186 14.0555 19.186 14.313C19.186 14.5706 18.9782 14.7801 18.7228 14.7801C18.4674 14.7801 18.2596 14.5706 18.2596 14.313Z" fill="#333333"/>
<path d="M4.26 19.46C4.47 19.4 4.78 19.33 4.98 19.34C5.36 19.34 6.02 19.71 6.02 19.95C6.02 20.18 5.8 20.18 5.72 20.55C5.66 20.91 5.52 21.64 5.4 22.1C5.09 23.28 4.3 25.86 1.28 27.45L1.11 27.25C3.62 25.45 4.35 23.54 4.74 22.11C4.88 21.63 5.06 20.49 5.07 20.13C5.08 19.94 5.05 19.87 4.89 19.81C4.71 19.74 4.44 19.7 4.26 19.67V19.46ZM4.7 25.72L4.82 25.53C5.25 25.72 5.76 25.96 5.96 26.02C6.22 26.11 6.32 26.1 6.46 25.92C7.1 25.14 7.5 22.69 7.5 22.05C7.5 21.99 7.46 21.94 7.38 21.94C6.79 21.94 5.62 22.11 5.03 22.2C4.42 22.29 3.23 22.51 2.9 22.59C2.6 22.67 2.53 22.81 2.33 22.81C2.07 22.81 1.67 22.32 1.59 22.09C1.52 21.9 1.52 21.66 1.54 21.45L1.73 21.41C1.88 21.68 2.02 22.02 2.3 22.02C2.89 22.02 6.16 21.59 7.12 21.48C7.39 21.45 7.46 21.23 7.63 21.23C7.84 21.23 8.42 21.7 8.42 21.91C8.42 22.12 8.18 22.09 8.13 22.38C7.92 23.78 7.65 25.11 7.05 26.23C6.81 26.71 6.36 26.98 6.01 26.98C5.84 26.98 5.75 26.9 5.7 26.68C5.6 26.31 5.27 26.15 4.7 25.72ZM11.71 22.77C11.92 23.11 12.09 23.43 12.5 23.43C13.39 23.43 16.9 23.2 17.36 23.17C18.03 23.13 18.31 23.07 18.56 23.07C18.95 23.07 19.4 23.23 19.4 23.51C19.4 23.68 19.29 23.79 18.96 23.79C18.61 23.79 18.26 23.77 17.65 23.77C17.02 23.77 14.21 23.93 13.46 24.02C12.89 24.08 12.77 24.23 12.48 24.23C12.2 24.23 11.73 23.73 11.59 23.39C11.52 23.21 11.51 23.03 11.5 22.84L11.71 22.77ZM24.26 19.54C24.51 19.48 24.71 19.43 24.89 19.43C25.31 19.43 25.99 19.8 25.99 20.04C25.99 20.24 25.81 20.28 25.78 20.61C25.71 21.14 25.7 22 25.7 22.56C25.69 23.12 25.68 24.95 25.69 26.1C25.69 26.55 25.71 26.85 25.71 27.01C25.71 27.28 25.62 27.39 25.4 27.39C25.07 27.39 24.89 26.85 24.89 26.51C24.89 26.29 24.98 26.11 25.03 25.72C25.11 24.98 25.1 23.35 25.1 22.58C25.1 21.78 25.1 20.69 25.05 20.19C25.02 19.88 24.79 19.81 24.27 19.75L24.26 19.54ZM25.58 22.35C26.58 22.56 27.59 22.92 28.16 23.28C28.47 23.48 28.73 23.73 28.73 24.03C28.73 24.21 28.62 24.38 28.4 24.38C28.08 24.38 27.96 24.03 27.36 23.57C26.89 23.25 26.31 22.95 25.58 22.68V22.35Z" fill="#333333"/>
</svg>
