<svg xmlns="http://www.w3.org/2000/svg" width="16" height="16" viewBox="0 0 16 16" fill="none">
  <path d="M2.87709 3.08279L3.81849 9.72052L4.10642 11.7454C4.13146 11.9221 4.28168 12.0534 4.45695 12.0534H14.5971C14.7924 12.0534 14.9526 11.8944 14.9526 11.6949C14.9526 11.4955 14.7949 11.3364 14.5971 11.3364H4.7649L4.57963 10.026H14.6071C14.7899 10.026 14.9426 9.88463 14.9601 9.70284L15.5885 3.06512C15.5986 2.96413 15.566 2.86566 15.4984 2.78991C15.4308 2.71417 15.3357 2.67377 15.2355 2.67377H3.53808L3.20258 0.308027C3.17754 0.13129 3.02731 0 2.85205 0H0.869095C0.6713 0.00252481 0.513565 0.161588 0.513565 0.361048C0.513565 0.560508 0.6713 0.719571 0.869095 0.719571H2.54409L2.87959 3.08532L2.87709 3.08279ZM14.8449 3.39082L14.2841 9.3115H4.47948L3.64073 3.39082H14.8474H14.8449Z" fill="#333333"/>
  <path d="M8.23749 14.313C8.23749 13.6616 7.71171 13.1289 7.06324 13.1289C6.41478 13.1289 5.88899 13.6591 5.88899 14.313C5.88899 14.967 6.41478 15.4972 7.06324 15.4972C7.71171 15.4972 8.23749 14.967 8.23749 14.313ZM6.60005 14.313C6.60005 14.0555 6.80786 13.846 7.06324 13.846C7.31862 13.846 7.52643 14.0555 7.52643 14.313C7.52643 14.5706 7.31862 14.7801 7.06324 14.7801C6.80786 14.7801 6.60005 14.5706 6.60005 14.313Z" fill="#333333"/>
  <path d="M12.8971 14.313C12.8971 13.6616 12.3713 13.1289 11.7228 13.1289C11.0743 13.1289 10.5486 13.6591 10.5486 14.313C10.5486 14.967 11.0743 15.4972 11.7228 15.4972C12.3713 15.4972 12.8971 14.967 12.8971 14.313ZM11.2596 14.313C11.2596 14.0555 11.4674 13.846 11.7228 13.846C11.9782 13.846 12.186 14.0555 12.186 14.313C12.186 14.5706 11.9782 14.7801 11.7228 14.7801C11.4674 14.7801 11.2596 14.5706 11.2596 14.313Z" fill="#333333"/>
</svg>