<svg width="31" height="32" viewBox="0 0 31 32" fill="none" xmlns="http://www.w3.org/2000/svg">
<path d="M22.9702 5.17918C23.0104 5.05234 23.0099 4.91573 22.969 4.78916C22.928 4.66258 22.8487 4.5526 22.7424 4.47516L17.102 0.361153C16.7807 0.126328 16.3955 4.34602e-05 16.0003 1.12154e-08C15.6052 -4.34378e-05 15.2199 0.126156 14.8986 0.360911L9.2567 4.4761C9.1511 4.55316 9.07216 4.66243 9.03126 4.7882C8.99035 4.91398 8.98959 5.04976 9.02907 5.176C9.06855 5.30225 9.14624 5.41245 9.25096 5.49074C9.35568 5.56903 9.48203 5.61138 9.61183 5.61169H10.2526V12.0616C10.2528 12.5752 10.4526 13.0677 10.808 13.4311C11.1635 13.7945 11.6456 13.9991 12.1486 14H14.1016C14.1485 14 14.1949 13.9906 14.2381 13.9722C14.2814 13.9539 14.3207 13.927 14.3538 13.8931C14.3868 13.8593 14.413 13.8191 14.4308 13.7748C14.4487 13.7306 14.4577 13.6832 14.4576 13.6354V10.8768C14.5305 8.7913 17.4707 8.79374 17.5425 10.8768V13.6366C17.5425 13.733 17.58 13.8254 17.6468 13.8935C17.7135 13.9617 17.8041 14 17.8985 14H19.8515C20.3545 13.9991 20.8367 13.7945 21.1921 13.4311C21.5476 13.0677 21.7473 12.5752 21.7476 12.0616V5.6117H22.3883C22.5177 5.61198 22.6438 5.57022 22.7484 5.49246C22.853 5.41471 22.9307 5.30499 22.9702 5.17918ZM21.3916 4.88484C21.2972 4.88485 21.2067 4.92314 21.1399 4.99129C21.0732 5.05945 21.0357 5.15188 21.0357 5.24827V12.0616C21.0357 12.3825 20.911 12.6903 20.689 12.9174C20.467 13.1445 20.1658 13.2725 19.8515 13.2731H18.2544V10.8768C18.2547 10.5743 18.1966 10.2748 18.0835 9.99522C17.9703 9.71568 17.8043 9.46165 17.595 9.24767C17.3856 9.03368 17.137 8.86392 16.8633 8.74809C16.5896 8.63227 16.2963 8.57266 16.0001 8.57266C15.7038 8.57266 15.4105 8.63227 15.1368 8.74809C14.8632 8.86392 14.6146 9.03368 14.4052 9.24767C14.1958 9.46165 14.0298 9.71568 13.9167 9.99522C13.8035 10.2748 13.7454 10.5743 13.7457 10.8768V13.2731H12.1486C11.8343 13.2724 11.5332 13.1445 11.3112 12.9174C11.0892 12.6902 10.9645 12.3825 10.9645 12.0616V5.24827C10.9645 5.20054 10.9553 5.15328 10.9374 5.10918C10.9195 5.06509 10.8933 5.02502 10.8602 4.99127C10.8272 4.95752 10.7879 4.93075 10.7447 4.91249C10.7015 4.89423 10.6553 4.88483 10.6085 4.88484H9.92097L15.3127 0.952201C15.5133 0.805674 15.7537 0.72691 16.0003 0.726954C16.247 0.726997 16.4874 0.805845 16.6879 0.952443L22.0794 4.88485L21.3916 4.88484Z" fill="#333333"/>
<path d="M3.65001 25.87C3.97001 25.98 4.36001 26.12 4.61001 26.17C4.73001 26.2 4.81001 26.18 4.82001 26.05C4.86001 25.58 4.86001 23.95 4.86001 23.1C4.86001 22.41 4.84001 20.78 4.79001 20.36C4.75001 20.06 4.53001 19.99 4.00001 19.93L3.99001 19.71C4.22001 19.65 4.53001 19.6 4.75001 19.6C5.16001 19.63 5.68001 19.95 5.68001 20.18C5.68001 20.37 5.48001 20.38 5.46001 20.67C5.41001 21.16 5.40001 22.4 5.40001 23.12C5.40001 23.86 5.44001 26.04 5.44001 26.31C5.44001 26.74 5.21001 27.17 4.87001 27.17C4.59001 27.17 4.61001 26.98 4.39001 26.71C4.21001 26.51 3.87001 26.26 3.55001 26.08L3.65001 25.87ZM1.20001 21.69L1.39001 21.6C1.57001 21.87 1.78001 22.12 2.00001 22.11C2.51001 22.1 4.43001 21.86 5.03001 21.78C7.48001 21.5 7.57001 21.32 7.80001 21.32C8.17001 21.32 8.68001 21.56 8.68001 21.79C8.68001 22 8.58001 22.07 8.32001 22.07C8.03001 22.07 7.74001 22.05 7.31001 22.05C6.83001 22.05 5.76001 22.16 5.05001 22.24C4.40001 22.32 3.38001 22.46 2.80001 22.58C2.40001 22.67 2.31001 22.84 2.08001 22.84C1.86001 22.84 1.49001 22.55 1.33001 22.23C1.26001 22.11 1.23001 21.88 1.20001 21.69ZM8.06001 25.21C7.80001 24.75 7.35001 24.12 6.65001 23.62L6.78001 23.44C7.80001 23.84 8.80001 24.56 8.96001 25.37C9.01001 25.66 8.89001 25.86 8.65001 25.86C8.37001 25.86 8.24001 25.53 8.06001 25.21ZM2.96001 23.56L3.23001 23.61C3.12001 24.71 2.34001 26.08 1.63001 26.08C1.41001 26.08 1.29001 25.92 1.29001 25.74C1.29001 25.49 1.48001 25.43 1.80001 25.18C2.51001 24.63 2.77001 24.11 2.96001 23.56ZM11.71 22.77C11.92 23.11 12.09 23.43 12.5 23.43C13.39 23.43 16.9 23.2 17.36 23.17C18.03 23.13 18.31 23.07 18.56 23.07C18.95 23.07 19.4 23.23 19.4 23.51C19.4 23.68 19.29 23.79 18.96 23.79C18.61 23.79 18.26 23.77 17.65 23.77C17.02 23.77 14.21 23.93 13.46 24.02C12.89 24.08 12.77 24.23 12.48 24.23C12.2 24.23 11.73 23.73 11.59 23.39C11.52 23.21 11.51 23.03 11.5 22.84L11.71 22.77ZM25.1 20.24L25.17 20.06C25.36 20.08 25.59 20.11 25.75 20.16C26.15 20.3 26.6 20.7 26.6 20.95C26.6 21.12 26.36 21.19 26.25 21.41C25.74 22.46 24.48 24.92 23.8 25.98H23.28C23.95 24.93 25.63 21.35 25.63 20.82C25.63 20.61 25.43 20.42 25.1 20.24ZM26.97 23.34L27.15 23.17C28.29 23.85 29.58 25.25 29.58 26.33C29.58 26.61 29.42 26.8 29.19 26.8C28.84 26.8 28.89 26.27 28.39 25.22C28.06 24.52 27.55 23.89 26.97 23.34ZM22.28 25.55L22.41 25.48C22.61 25.65 22.77 25.73 22.95 25.73C23.51 25.73 27.27 25.29 28.65 25.02L28.73 25.42C27.31 25.75 24.59 26.17 23.64 26.37C23.43 26.42 23.23 26.67 23.07 26.67C22.8 26.67 22.39 26.23 22.31 25.93C22.28 25.8 22.27 25.69 22.28 25.55Z" fill="#333333"/>
</svg>
