<svg xmlns="http://www.w3.org/2000/svg" width="14" height="14" viewBox="0 0 14 14" fill="none">
  <path d="M13.9702 5.17918C14.0104 5.05234 14.0099 4.91573 13.969 4.78916C13.928 4.66258 13.8487 4.5526 13.7424 4.47516L8.10201 0.361153C7.7807 0.126328 7.39547 4.34602e-05 7.00033 1.12154e-08C6.60519 -4.34378e-05 6.21994 0.126156 5.89858 0.360911L0.256699 4.4761C0.151098 4.55316 0.0721647 4.66243 0.0312591 4.7882C-0.00964645 4.91398 -0.0104143 5.04976 0.029066 5.176C0.0685463 5.30225 0.146239 5.41245 0.250961 5.49074C0.355683 5.56903 0.482035 5.61138 0.611829 5.61169H1.25257V12.0616C1.25281 12.5752 1.45257 13.0677 1.80803 13.4311C2.16348 13.7945 2.6456 13.9991 3.14861 14H5.10165C5.14849 14 5.19487 13.9906 5.23814 13.9722C5.2814 13.9539 5.32069 13.927 5.35376 13.8931C5.38683 13.8593 5.41302 13.8191 5.43084 13.7748C5.44866 13.7306 5.45775 13.6832 5.45759 13.6354V10.8768C5.53046 8.7913 8.47074 8.79374 8.54254 10.8768V13.6366C8.54254 13.733 8.58004 13.8254 8.6468 13.8935C8.71355 13.9617 8.80408 14 8.89848 14H10.8515C11.3545 13.9991 11.8367 13.7945 12.1921 13.4311C12.5476 13.0677 12.7473 12.5752 12.7476 12.0616V5.6117H13.3883C13.5177 5.61198 13.6438 5.57022 13.7484 5.49246C13.853 5.41471 13.9307 5.30499 13.9702 5.17918ZM12.3916 4.88484C12.2972 4.88485 12.2067 4.92314 12.1399 4.99129C12.0732 5.05945 12.0357 5.15188 12.0357 5.24827V12.0616C12.0357 12.3825 11.911 12.6903 11.689 12.9174C11.467 13.1445 11.1658 13.2725 10.8515 13.2731H9.25443V10.8768C9.25473 10.5743 9.19664 10.2748 9.08349 9.99522C8.97033 9.71568 8.80433 9.46165 8.59496 9.24767C8.38559 9.03368 8.13697 8.86392 7.86331 8.74809C7.58965 8.63227 7.29631 8.57266 7.00007 8.57266C6.70383 8.57266 6.4105 8.63227 6.13683 8.74809C5.86317 8.86392 5.61455 9.03368 5.40518 9.24767C5.19582 9.46165 5.02981 9.71568 4.91666 9.99522C4.8035 10.2748 4.74541 10.5743 4.74572 10.8768V13.2731H3.14861C2.83434 13.2724 2.53317 13.1445 2.31118 12.9174C2.08918 12.6902 1.96449 12.3825 1.96445 12.0616V5.24827C1.96446 5.20054 1.95526 5.15328 1.93737 5.10918C1.91949 5.06509 1.89327 5.02502 1.86022 4.99127C1.82716 4.95752 1.78792 4.93075 1.74473 4.91249C1.70154 4.89423 1.65526 4.88483 1.60851 4.88484H0.920969L6.31269 0.952201C6.51326 0.805674 6.75371 0.72691 7.00034 0.726954C7.24696 0.726997 7.48739 0.805845 7.68791 0.952443L13.0794 4.88485L12.3916 4.88484Z" fill="#333333"/>
</svg>