<svg width="21" height="32" viewBox="0 0 21 32" fill="none" xmlns="http://www.w3.org/2000/svg">
<path d="M5.6556 1.65565C6.75976 0.551885 8.20615 0 9.65268 0C11.0992 0 12.5456 0.551885 13.6489 1.65565C14.7531 2.75942 15.3049 4.20629 15.3049 5.65244C15.3049 7.00246 14.8241 8.35247 13.863 9.42391L17.9089 13.47C18.0304 13.591 18.0304 13.7881 17.9089 13.9092C17.7878 14.0303 17.5912 14.0303 17.4697 13.9092L13.4237 9.86314C12.3523 10.8243 11.0024 11.3052 9.65282 11.3052C8.20629 11.3052 6.7599 10.7533 5.65617 9.64951C4.55187 8.54546 4 7.09888 4 5.65244C4 4.206 4.55187 2.75942 5.6556 1.65565ZM6.09524 2.09446C5.11256 3.07717 4.62137 4.36495 4.62137 5.65244C4.62137 6.93993 5.11271 8.22771 6.09481 9.21C7.07749 10.1927 8.3648 10.6839 9.65268 10.6839C10.9406 10.6839 12.2279 10.1926 13.2101 9.21042C14.1924 8.22771 14.6836 6.94036 14.6836 5.65244C14.6836 4.36452 14.1922 3.07717 13.2101 2.09488C12.2279 1.1126 10.9401 0.621387 9.65268 0.621387C8.36523 0.621387 7.07749 1.11274 6.09524 2.0946V2.09446Z" fill="#333333"/>
<path d="M0.4 20.82H2.67L3.08 20.26C3.08 20.26 3.55 20.66 3.82 20.96C3.79 21.07 3.71 21.12 3.57 21.12H0.48L0.4 20.82ZM3.36 23.78H8.33L8.8 23.19C8.8 23.19 9.32 23.61 9.64 23.92C9.61 24.02 9.53 24.07 9.39 24.07H3.44L3.36 23.78ZM1.82 18.63L2.82 18.73C2.79 18.87 2.69 18.97 2.45 19.01V26.83C2.45 27.36 2.35 27.68 1.5 27.78C1.47 27.58 1.42 27.4 1.3 27.3C1.17 27.18 0.95 27.11 0.57 27.06V26.9C0.57 26.9 1.43 26.97 1.6 26.97C1.77 26.97 1.82 26.92 1.82 26.77V18.63ZM0.34 23.85C0.93 23.7 2.38 23.22 3.84 22.71L3.89 22.86C3.19 23.24 2.2 23.8 0.9 24.44C0.88 24.56 0.79 24.66 0.7 24.7L0.34 23.85ZM4.45 19.25H8.94V19.54H4.45V19.25ZM4.42 18.78H4.6C4.83 19.62 4.55 20.18 4.22 20.4C4.02 20.53 3.69 20.54 3.59 20.32C3.51 20.13 3.64 19.94 3.83 19.83C4.14 19.68 4.44 19.24 4.42 18.78ZM8.61 19.25H8.5L8.93 18.81L9.7 19.56C9.62 19.64 9.52 19.65 9.32 19.66C9.07 19.95 8.6 20.45 8.3 20.71L8.17 20.66C8.29 20.29 8.52 19.59 8.61 19.25ZM5.44 19.25H6.12C6.04 20.66 5.83 21.76 3.53 22.5L3.4 22.34C5.31 21.53 5.4 20.5 5.44 19.25ZM7 19.25H7.6C7.6 19.36 7.6 19.46 7.6 19.53V21.48C7.6 21.6 7.62 21.63 7.83 21.63H8.38C8.62 21.63 8.82 21.63 8.9 21.62C8.97 21.61 9.01 21.6 9.04 21.55C9.11 21.46 9.19 21.14 9.28 20.83H9.39L9.42 21.55C9.61 21.62 9.66 21.69 9.66 21.81C9.66 22.07 9.42 22.17 8.36 22.17H7.69C7.1 22.17 7 22.04 7 21.61V19.25ZM6.01 22.29L6.97 22.4C6.95 22.52 6.87 22.61 6.65 22.65V27.56C6.65 27.65 6.37 27.79 6.13 27.79H6.01V22.29ZM5.74 23.78H6.49V23.94C5.84 25.4 4.64 26.5 2.95 27.25L2.85 27.09C4.24 26.29 5.22 25.11 5.74 23.78ZM6.71 23.78C7.29 24.99 8.51 26.01 9.68 26.47L9.66 26.57C9.4 26.62 9.18 26.83 9.09 27.16C7.98 26.5 7.06 25.35 6.56 23.86L6.71 23.78ZM11.38 20.82L11.58 20.74C11.8 21.08 11.99 21.39 12.33 21.4C12.74 21.4 15.23 21.03 16.3 20.92C18.1 20.73 18.78 20.64 19 20.64C19.34 20.64 19.87 20.83 19.87 21.15C19.87 21.33 19.78 21.4 19.58 21.4C19.25 21.4 18.46 21.15 16.34 21.35C15.27 21.44 14 21.71 13.3 21.88C12.85 21.99 12.66 22.14 12.4 22.14C12.06 22.14 11.59 21.7 11.48 21.42C11.42 21.25 11.4 21.02 11.38 20.82ZM15 19.64L14.97 19.44C15.15 19.34 15.4 19.22 15.66 19.22C16.06 19.22 16.69 19.45 16.69 19.69C16.69 19.93 16.53 20.08 16.52 20.34C16.48 20.81 16.49 22.28 16.51 23.26L16 22.77C16 22.24 15.94 20.77 15.88 20.01C15.87 19.81 15.82 19.76 15.66 19.71C15.51 19.67 15.29 19.65 15 19.64ZM15.6 22.51C16.52 22.51 16.92 23.21 16.92 24.23C16.92 26.06 15.55 27.17 13.62 27.65L13.49 27.41C14.7 26.95 15.7 26.25 16.07 25.27C15.09 25.72 14.29 24.94 14.29 23.93C14.29 23.2 14.78 22.51 15.6 22.51ZM15.51 24.83C16.01 24.83 16.27 24.59 16.27 23.91C16.27 23.26 15.94 22.92 15.52 22.92C15.01 22.92 14.69 23.36 14.69 23.88C14.69 24.45 15.05 24.83 15.51 24.83Z" fill="#333333"/>
</svg>
