<svg xmlns="http://www.w3.org/2000/svg" width="14" height="14" viewBox="0 0 14 14" fill="none">
  <path d="M1.6556 1.65565C2.75976 0.551885 4.20615 0 5.65268 0C7.09921 0 8.5456 0.551885 9.64891 1.65565C10.7531 2.75942 11.3049 4.20629 11.3049 5.65244C11.3049 7.00246 10.8241 8.35247 9.86296 9.42391L13.9089 13.47C14.0304 13.591 14.0304 13.7881 13.9089 13.9092C13.7878 14.0303 13.5912 14.0303 13.4697 13.9092L9.42374 9.86314C8.35234 10.8243 7.00237 11.3052 5.65282 11.3052C4.20629 11.3052 2.7599 10.7533 1.65617 9.64951C0.551867 8.54546 0 7.09888 0 5.65244C0 4.206 0.551867 2.75942 1.6556 1.65565ZM2.09524 2.09446C1.11256 3.07717 0.621366 4.36495 0.621366 5.65244C0.621366 6.93993 1.11271 8.22771 2.09481 9.21C3.07749 10.1927 4.3648 10.6839 5.65268 10.6839C6.94056 10.6839 8.22787 10.1926 9.21012 9.21042C10.1924 8.22771 10.6836 6.94036 10.6836 5.65244C10.6836 4.36452 10.1922 3.07717 9.21012 2.09488C8.22787 1.1126 6.94013 0.621387 5.65268 0.621387C4.36523 0.621387 3.07749 1.11274 2.09524 2.0946V2.09446Z" fill="#333333"/>
</svg>