<svg width="52" height="32" viewBox="0 0 52 32" fill="none" xmlns="http://www.w3.org/2000/svg">
<path d="M26.285 6.03532C27.8691 6.03532 29.1557 4.68096 29.1557 3.01892C29.1557 1.35687 27.8691 0 26.285 0C24.7008 0 23.4142 1.35435 23.4142 3.0164C23.4142 4.67844 24.7032 6.0328 26.285 6.0328V6.03532ZM26.285 0.716268C27.4923 0.716268 28.4764 1.7478 28.4764 3.01892C28.4764 4.29004 27.4947 5.32157 26.285 5.32157C25.0752 5.32157 24.0935 4.29004 24.0935 3.01892C24.0935 1.7478 25.0776 0.713746 26.285 0.713746V0.716268Z" fill="#333333"/>
<path d="M22.7158 14H29.9622C30.159 14 30.3414 13.9167 30.4782 13.7679C30.6127 13.6191 30.6871 13.4148 30.6775 13.208C30.5358 9.9142 28.8965 7.94446 26.2874 7.94446C23.6783 7.94446 22.1301 9.86628 22.0005 13.2131C21.9933 13.4199 22.0653 13.6216 22.1997 13.7704C22.3365 13.9192 22.519 14 22.7134 14H22.7158ZM26.2874 8.66073C29.4581 8.66073 29.9382 11.8638 29.9982 13.2408C29.9982 13.2585 29.9934 13.2686 29.9862 13.2761C29.9766 13.2862 29.9694 13.2862 29.9622 13.2862H22.7158C22.7158 13.2862 22.7014 13.2862 22.6918 13.2761C22.687 13.2711 22.6798 13.2585 22.6798 13.2433C22.747 11.5334 23.3014 8.66325 26.285 8.66325L26.2874 8.66073Z" fill="#333333"/>
<path d="M0.81 21.13L1.01 21.04C1.2 21.29 1.38 21.63 1.72 21.63C2.47 21.63 6.76 21.16 7.51 21.07C7.7 21.04 7.8 20.87 7.97 20.87C8.27 20.87 9.02 21.47 9.02 21.76C9.02 22.04 8.64 21.94 8.35 22.19C7.76 22.76 6.63 23.81 5.31 24.74L5.03 24.46C6.17 23.57 7.34 22.35 7.74 21.72C7.81 21.6 7.77 21.54 7.64 21.54C6.62 21.59 3.35 22.02 2.47 22.2C2.23 22.24 2.03 22.44 1.83 22.44C1.53 22.44 1.09 22.03 0.96 21.76C0.9 21.63 0.83 21.41 0.81 21.13ZM3.29 23.22C4.65 23.81 6.4 25.14 6.4 26.23C6.4 26.46 6.25 26.59 6.06 26.59C5.72 26.59 5.75 25.92 4.63 24.71C4.19 24.21 3.68 23.79 3.15 23.41L3.29 23.22ZM16.1547 19.54L16.2347 19.36C16.4547 19.37 16.6647 19.38 16.8847 19.46C17.2647 19.59 17.7147 20.03 17.7147 20.29C17.7147 20.48 17.5347 20.47 17.2547 20.77C16.8547 21.21 16.2947 21.83 15.5347 22.54C14.9847 23.04 13.5347 24.26 11.6547 25.04L11.5247 24.79C14.0447 23.38 15.7747 21.55 16.4847 20.57C16.6647 20.31 16.7547 20.14 16.7547 20.05C16.7547 19.89 16.5847 19.76 16.1547 19.54ZM15.2447 22.47L15.5547 22.21C15.9047 22.45 16.2447 22.66 16.2447 22.84C16.2447 22.97 16.1647 23.1 16.1547 23.35C16.0947 24.81 16.1447 26.34 16.1447 26.93C16.1447 27.31 16.0547 27.42 15.8347 27.42C15.5147 27.42 15.3447 26.95 15.3447 26.62C15.3447 26.43 15.4147 26.24 15.4547 25.91C15.5347 25.22 15.5847 23.55 15.5547 23.11C15.5447 22.86 15.4747 22.73 15.2447 22.47ZM27.0747 21.29C27.0747 20.67 27.5847 20.16 28.2147 20.16C28.8347 20.16 29.3447 20.67 29.3447 21.29C29.3447 21.92 28.8347 22.43 28.2147 22.43C27.5847 22.43 27.0747 21.92 27.0747 21.29ZM27.4047 21.29C27.4047 21.74 27.7647 22.1 28.2147 22.1C28.6647 22.1 29.0147 21.74 29.0147 21.29C29.0147 20.85 28.6647 20.49 28.2147 20.49C27.7647 20.49 27.4047 20.85 27.4047 21.29ZM21.3247 23.53L21.4747 23.39C21.7147 23.6 21.9547 23.75 22.1147 23.75C22.2547 23.75 22.3947 23.66 22.5947 23.48C23.0547 23.06 23.9047 22.09 24.2347 21.75C24.4447 21.53 24.6447 21.38 24.8947 21.38C25.1447 21.38 25.3947 21.46 25.6847 21.77C26.9447 23.03 28.4647 24.49 29.7147 25.32C29.9447 25.48 30.1047 25.74 30.1047 26C30.1047 26.19 30.0047 26.31 29.8147 26.31C29.5347 26.31 29.0447 25.9 28.3747 25.26C27.7347 24.65 26.1147 22.94 25.3647 22.18C25.1647 22 25.0547 21.92 24.9147 21.92C24.8147 21.92 24.6947 21.98 24.5447 22.16C24.2247 22.52 23.4447 23.53 23.0847 23.99C22.8347 24.3 22.6847 24.51 22.4147 24.51C22.1447 24.51 21.7647 24.27 21.5547 24.03C21.4347 23.9 21.3747 23.72 21.3247 23.53ZM32.5147 22.77C32.7247 23.11 32.8947 23.43 33.3047 23.43C34.1947 23.43 37.7047 23.2 38.1647 23.17C38.8347 23.13 39.1147 23.07 39.3647 23.07C39.7547 23.07 40.2047 23.23 40.2047 23.51C40.2047 23.68 40.0947 23.79 39.7647 23.79C39.4147 23.79 39.0647 23.77 38.4547 23.77C37.8247 23.77 35.0147 23.93 34.2647 24.02C33.6947 24.08 33.5747 24.23 33.2847 24.23C33.0047 24.23 32.5347 23.73 32.3947 23.39C32.3247 23.21 32.3147 23.03 32.3047 22.84L32.5147 22.77ZM49.1794 20.81C48.9694 20.54 48.6994 20.22 48.2694 19.89L48.4094 19.72C48.9094 19.93 49.3194 20.16 49.5494 20.4C49.7994 20.64 49.8994 20.81 49.8994 21C49.8994 21.17 49.7894 21.27 49.6394 21.27C49.4894 21.27 49.3794 21.06 49.1794 20.81ZM50.1994 20.03C49.9794 19.77 49.7394 19.52 49.2894 19.19L49.4194 19.01C49.9294 19.2 50.3094 19.42 50.5594 19.62C50.8094 19.84 50.9294 20.02 50.9294 20.24C50.9294 20.4 50.8294 20.5 50.6894 20.5C50.5194 20.5 50.4194 20.28 50.1994 20.03ZM44.2394 20.28L44.3594 20.05C44.7294 20.16 45.1794 20.3 45.6194 20.49C46.2894 20.83 46.5894 21.15 46.5894 21.51C46.5894 21.68 46.4794 21.83 46.2994 21.83C46.0194 21.83 45.8194 21.43 45.2894 21C44.9494 20.72 44.5294 20.44 44.2394 20.28ZM50.2794 21.65L50.5094 21.79C49.3694 23.8 47.2594 25.55 45.0494 26.76C44.8494 26.89 44.7494 27.14 44.4794 27.14C44.1694 27.14 43.5394 26.72 43.3194 26.41C43.1994 26.24 43.1194 25.88 43.0994 25.74L43.2594 25.64C43.5394 25.97 43.8494 26.3 44.1794 26.3C44.8594 26.3 48.4794 24.14 50.2794 21.65ZM42.8994 22.21L43.0094 21.99C43.5094 22.11 43.8894 22.22 44.3394 22.41C44.9494 22.66 45.3294 23.01 45.3294 23.4C45.3294 23.55 45.2194 23.7 45.0294 23.7C44.7194 23.7 44.5594 23.34 44.0494 22.95C43.6694 22.65 43.3194 22.42 42.8994 22.21Z" fill="#333333"/>
</svg>
