<?xml version="1.0" encoding="utf-8"?>
<!-- Generator: Adobe Illustrator 28.0.0, SVG Export Plug-In . SVG Version: 6.00 Build 0)  -->
<svg version="1.1" id="レイヤー_1" xmlns="http://www.w3.org/2000/svg" xmlns:xlink="http://www.w3.org/1999/xlink" x="0px"
	 y="0px" width="52px" height="33px" viewBox="0 0 52 33" style="enable-background:new 0 0 52 33;" xml:space="preserve">
<style type="text/css">
	.st0{fill:none;stroke:#333333;stroke-width:0.6;stroke-linecap:round;}
	.st1{fill:#333333;}
</style>
<path class="st0" d="M32.8,1.5L32.8,1.5c1.1,0.8,1.6,2.1,1.5,3.5c0,1.4-0.6,2.8-1.6,4.1c-0.8,1-1.8,2-2.7,3
	c-0.1,0.1-0.2,0.2-0.4,0.4c-0.5,0.5-1,1-1.4,1.5s-0.7,0.9-0.9,1.2l0,0c-0.1,0.1-0.1,0.2-0.2,0.2H27l0,0l0,0c0,0,0,0-0.1,0h-0.1l0,0
	h-0.1c-0.1,0-0.1-0.1-0.2-0.2 M32.8,1.5C30.8,0,28,0.8,27,2.7 M26.6,15.1L26.6,15.1 M26.6,15.1L26.6,15.1 M26.6,15.1
	c-0.2-0.3-0.5-0.8-0.9-1.2c-0.4-0.5-0.9-0.9-1.4-1.5c-0.1-0.1-0.2-0.2-0.4-0.4c-0.9-0.9-1.9-1.9-2.7-3 M21.3,9.1L21.3,9.1l0.2-0.2
	L21.3,9.1z M21.3,9.1c-1-1.3-1.6-2.7-1.6-4.1s0.4-2.6,1.5-3.5l0,0C23.2,0,26,0.8,27,2.7 M27,2.7C27.1,2.8,27,2.6,27,2.7"/>
<path class="st1" d="M2.7,20.7v-0.2c0.2-0.1,0.5-0.2,0.7-0.2c0.4,0,1,0.3,1,0.6c0,0.2-0.2,0.4-0.2,0.7C4,22.1,4,23.4,4,24.5
	c0,2.1,0.1,2.6,0.1,3s-0.3,0.9-0.6,0.9c-0.2,0-0.2-0.3-0.6-0.6c-0.2-0.2-0.8-0.6-1.2-0.9l0.1-0.2c0.4,0.2,1,0.5,1.3,0.7
	c0.2,0.1,0.3,0,0.3-0.2c0-0.5,0-1.3,0-2.6c0-1.1,0-3.1,0-3.5c0-0.2,0-0.3-0.2-0.3C3.1,20.7,2.9,20.7,2.7,20.7z M1.2,22.3
	c0.5,0.5,0.7,0.6,1.2,0.6c0.4,0,0.9-0.1,1.4-0.3c0.9-0.3,1.3-0.7,1.5-0.7s0.4,0,0.4,0.3c0,0.2-0.1,0.3-0.3,0.4
	C5,22.8,4.3,23,3.8,23.2c-0.4,0.1-1.1,0.3-1.5,0.3c-0.5,0-0.9-0.1-1.3-1L1.2,22.3z M1.7,26.4c0.4-0.2,1.2-0.9,1.9-1.3
	c0.9-0.5,2-1,3.1-1c1.2,0,2,0.7,2,1.8c0,1-0.8,1.9-2,1.9c-0.7,0-1.4-0.3-1.9-1L5,26.6c0.4,0.3,0.9,0.6,1.6,0.6c1,0,1.5-0.6,1.5-1.4
	s-0.5-1.3-1.6-1.3c-0.9,0-2,0.5-2.8,1c-0.6,0.3-1.2,0.9-1.7,1.4c-0.4,0.3-0.5,0.4-0.6,0.4s-0.2-0.1-0.3-0.2s-0.2-0.3-0.2-0.4
	c0-0.2,0.1-0.3,0.3-0.3C1.4,26.5,1.5,26.5,1.7,26.4z M6.5,21.8v-0.2c0.5-0.1,0.9-0.1,1.3,0c0.8,0.1,1.5,0.8,1.5,1.4
	c0,0.2-0.1,0.4-0.3,0.4s-0.3-0.2-0.6-0.2c-0.2,0-0.6,0.2-0.8,0.3l-0.1-0.2c0.2-0.1,0.7-0.4,0.8-0.5c0.1-0.1,0.1-0.2,0-0.4
	C8,21.8,7.2,21.8,6.5,21.8z M17.6,23.4L17.6,23.4l0.3-0.4l0.8,0.7c-0.1,0.1-0.2,0.1-0.4,0.2c0,1.5,0.2,3.5,1.1,4
	c0.1,0.1,0.2,0.1,0.2-0.1c0.1-0.3,0.2-0.6,0.3-0.9H20v1.2c0.2,0.3,0.3,0.4,0.2,0.6c-0.2,0.2-0.6,0.1-1-0.1
	C17.9,27.7,17.7,25.6,17.6,23.4z M12,23.4h6v0.3h-5.9L12,23.4z M13.5,19.6l1,0.4c-0.1,0.1-0.2,0.2-0.4,0.2c-0.8,1.6-1.9,2.8-3.1,3.6
	l-0.1-0.1C11.9,22.7,12.9,21.3,13.5,19.6z M13.2,22.1h4.5l0.5-0.6c0,0,0.5,0.4,0.9,0.7c0,0.1-0.1,0.2-0.3,0.2h-5.5L13.2,22.1z
	 M13.3,20.8h5.1l0.5-0.6c0,0,0.6,0.4,0.9,0.8c0,0.1-0.1,0.1-0.3,0.1h-6.4L13.3,20.8z M15.9,24l1,0.5c-0.1,0.1-0.2,0.2-0.4,0.1
	c-1,1.7-2.9,3.4-5.4,4.3L11,28.8C13.2,27.6,15.1,25.8,15.9,24z M12.4,24.5c5.3,2.3,4.6,4.4,3.8,3.8c-0.5-0.9-1.8-2.4-3.9-3.7
	L12.4,24.5z M25.6,22.1c0.8-0.4,1.7-0.6,2.4-0.6c0.7,0,1.1,0.1,1.4,0.2c0.2,0.1,0.3,0.2,0.3,0.4c0,0.1-0.1,0.2-0.3,0.2
	c-0.2,0-0.5,0-0.8,0.2c-0.4,0.2-1.1,0.6-1.6,0.9l-0.2-0.2c0.4-0.3,1.2-0.8,1.4-1c0.1-0.1,0.1-0.2-0.5-0.2c-0.4,0-1.1,0.1-1.9,0.3
	L25.6,22.1z M25.5,25.2c0.1,0.2,0.1,0.6,0.3,0.9c0.3,0.6,0.9,0.9,2.1,0.9c1.1,0,1.5-0.2,1.7-0.2c0.3,0,0.5,0.1,0.5,0.3
	c0,0.4-0.9,0.5-2,0.5c-1.6,0-2.4-0.5-2.7-1.5c-0.1-0.3-0.1-0.6-0.1-0.9L25.5,25.2z M22.5,20.8c0.3,0.4,0.6,0.7,0.6,1.1
	c0,0.3-0.1,0.7-0.2,1.2c-0.2,0.6-0.5,1.4-0.5,2.6c0,0.9,0.3,1.8,0.6,2.2c0.1,0.2,0.3,0.4,0.5,0.4s0.3-0.1,0.3-0.3
	c0-0.2-0.2-0.5-0.2-0.8c0-0.2,0.1-0.4,0.2-0.7c0.1-0.4,0.6-1.5,0.8-2l-0.2-0.1c-0.2,0.5-0.8,1.8-1,2.1c-0.1,0.1-0.2,0.1-0.2,0
	c-0.1-0.1-0.1-0.3-0.1-0.9c0-1,0.4-1.9,0.6-2.5s0.4-0.8,0.4-1c0-0.4-0.4-0.9-0.6-1.1c-0.2-0.1-0.3-0.2-0.5-0.3L22.5,20.8z
	 M35.9,20.5l0.4-0.6l1.1,0.8c-0.2,0.2-0.5,0.3-1,0.4v0.5c0.3,3.1,1.9,5.5,4.7,6.6v0.1c-0.3,0-0.6,0.2-0.7,0.6
	C38.7,28,37,26,36.5,23.5c-0.6,2.5-2.2,4.4-4.5,5.4l-0.1-0.2c2.2-1.2,3.9-3.6,4.2-7.1v-0.8h-2.3l-0.1-0.3H35.9z M44.8,20l0.1-0.1
	c0.2,0.1,0.3,0.1,0.5,0.2c0.4,0.2,0.7,0.7,0.7,0.9c0,0.2-0.1,0.3-0.1,0.6c-0.1,0.3-0.2,0.6-0.2,1c0,0.2,0,0.2,0.2,0
	c0.5-0.8,1.2-1.4,1.8-1.4c1.2,0,1.8,1.3,1.8,3.1c0,2.1-0.9,3.7-3.6,4.4l-0.1-0.2c2.4-1,3-2.5,3-4.3c0-1.6-0.4-2.6-1.1-2.6
	c-0.5,0-1.1,0.4-1.5,1.1c-0.3,0.6-0.5,1.2-0.5,1.9c0,0.4,0.1,0.7,0.1,1c0,0.2-0.1,0.3-0.3,0.3c-0.1,0-0.3-0.1-0.4-0.3
	c-0.1-0.2-0.1-0.7-0.1-0.9c0-1.1,0.5-3,0.5-3.5C45.4,20.8,45.2,20.5,44.8,20z"/>
</svg>
