<svg width="18" height="18" viewBox="0 0 23 23" fill="none" xmlns="http://www.w3.org/2000/svg">
<g clip-path="url(#clip0_1_3)">
<path d="M10.2791 20.1225C4.61091 20.1225 0 15.6093 0 10.0612C0 4.51321 4.61091 0 10.2791 0C15.9472 0 20.5581 4.51321 20.5581 10.0612C20.5581 15.6093 15.9472 20.1225 10.2791 20.1225ZM10.2791 1.38868C5.39531 1.38868 1.41874 5.28099 1.41874 10.0612C1.41874 14.8415 5.39531 18.7338 10.2791 18.7338C15.1628 18.7338 19.1394 14.8415 19.1394 10.0612C19.1394 5.28099 15.1628 1.38868 10.2791 1.38868Z" fill="#333333"/>
<path d="M22.2906 23C22.1065 23 21.9291 22.9332 21.7859 22.7997L16.2882 17.4186C16.0086 17.1448 16.0086 16.7042 16.2882 16.4372C16.5679 16.1634 17.0181 16.1634 17.2909 16.4372L22.7885 21.8183C23.0682 22.092 23.0682 22.5327 22.7885 22.7997C22.6521 22.9332 22.468 23 22.2838 23H22.2906Z" fill="#333333"/>
</g>
<defs>
<clipPath id="clip0_1_3">
<rect width="23" height="23" fill="white"/>
</clipPath>
</defs>
</svg>
