<svg width="29" height="29" viewBox="0 0 29 29" fill="none" xmlns="http://www.w3.org/2000/svg">
<g id="Icon awesome-line">
<mask id="path-1-inside-1_746_8257" fill="white">
<path d="M17.5218 10.854V15.3343C17.5221 15.3608 17.5173 15.3872 17.5075 15.4118C17.4977 15.4365 17.4832 15.4588 17.4649 15.4776C17.4465 15.4964 17.4247 15.5113 17.4007 15.5213C17.3766 15.5313 17.3508 15.5362 17.3249 15.5359H16.6249C16.5939 15.5356 16.5634 15.5282 16.5356 15.514C16.5079 15.4999 16.4837 15.4795 16.4648 15.4543L14.4575 12.6837V15.3423C14.4579 15.3689 14.453 15.3953 14.4433 15.4199C14.4335 15.4445 14.419 15.4669 14.4006 15.4857C14.3823 15.5045 14.3604 15.5193 14.3364 15.5293C14.3124 15.5393 14.2866 15.5443 14.2606 15.5439H13.5606C13.5347 15.5443 13.5089 15.5393 13.4849 15.5293C13.4608 15.5193 13.439 15.5045 13.4206 15.4857C13.4023 15.4669 13.3878 15.4445 13.378 15.4199C13.3683 15.3953 13.3634 15.3689 13.3638 15.3423V10.862C13.3634 10.8355 13.3683 10.8091 13.378 10.7845C13.3878 10.7598 13.4023 10.7375 13.4206 10.7187C13.439 10.6999 13.4608 10.685 13.4849 10.675C13.5089 10.665 13.5347 10.6601 13.5606 10.6604H14.2563C14.2882 10.66 14.3198 10.668 14.3478 10.6837C14.3759 10.6994 14.3995 10.7222 14.4164 10.75L16.4219 13.5224V10.8602C16.4215 10.8337 16.4264 10.8073 16.4362 10.7827C16.4459 10.758 16.4604 10.7357 16.4788 10.7169C16.4971 10.6981 16.519 10.6832 16.543 10.6732C16.5671 10.6632 16.5928 10.6583 16.6188 10.6586H17.3188C17.3447 10.6574 17.3706 10.6616 17.395 10.6708C17.4193 10.68 17.4416 10.6942 17.4606 10.7124C17.4795 10.7306 17.4947 10.7525 17.5052 10.7768C17.5157 10.8011 17.5213 10.8274 17.5218 10.854ZM12.4765 10.6524H11.7765C11.7506 10.652 11.7248 10.657 11.7008 10.667C11.6767 10.677 11.6549 10.6918 11.6365 10.7106C11.6182 10.7294 11.6037 10.7518 11.5939 10.7764C11.5841 10.801 11.5793 10.8274 11.5796 10.854V15.3343C11.5793 15.3608 11.5841 15.3872 11.5939 15.4118C11.6037 15.4365 11.6182 15.4588 11.6365 15.4776C11.6549 15.4964 11.6767 15.5113 11.7008 15.5213C11.7248 15.5313 11.7506 15.5362 11.7765 15.5359H12.4765C12.5025 15.5362 12.5282 15.5313 12.5523 15.5213C12.5763 15.5113 12.5982 15.4964 12.6165 15.4776C12.6349 15.4588 12.6494 15.4365 12.6591 15.4118C12.6689 15.3872 12.6737 15.3608 12.6734 15.3343V10.854C12.6729 10.8006 12.652 10.7496 12.6152 10.7119C12.5784 10.6742 12.5286 10.6528 12.4765 10.6524ZM10.7843 14.4077H8.87152V10.854C8.87187 10.8274 8.86702 10.801 8.85725 10.7764C8.84749 10.7518 8.833 10.7294 8.81464 10.7106C8.79629 10.6918 8.77445 10.677 8.7504 10.667C8.72636 10.657 8.7006 10.652 8.67465 10.6524H7.97465C7.9487 10.652 7.92294 10.657 7.89889 10.667C7.87485 10.677 7.853 10.6918 7.83465 10.7106C7.8163 10.7294 7.80181 10.7518 7.79204 10.7764C7.78227 10.801 7.77742 10.8274 7.77777 10.854V15.3343C7.77702 15.3601 7.78153 15.3857 7.79102 15.4097C7.80051 15.4336 7.81478 15.4552 7.8329 15.4732C7.8699 15.5082 7.91812 15.5283 7.96852 15.5296H10.7799C10.8058 15.53 10.8316 15.525 10.8557 15.515C10.8797 15.505 10.9015 15.4902 10.9199 15.4714C10.9382 15.4526 10.9527 15.4302 10.9625 15.4056C10.9723 15.3809 10.9771 15.3546 10.9768 15.328V14.6111C10.9768 14.5587 10.9569 14.5084 10.9213 14.4708C10.8857 14.4331 10.8372 14.4112 10.786 14.4095L10.7843 14.4077ZM21.2125 10.6524H18.4011C18.3491 10.6528 18.2993 10.6742 18.2624 10.7119C18.2256 10.7496 18.2047 10.8006 18.2043 10.854V15.3343C18.2047 15.3876 18.2256 15.4386 18.2624 15.4763C18.2993 15.514 18.3491 15.5354 18.4011 15.5359H21.2125C21.2385 15.5362 21.2642 15.5313 21.2883 15.5213C21.3123 15.5113 21.3342 15.4964 21.3525 15.4776C21.3709 15.4588 21.3854 15.4365 21.3951 15.4118C21.4049 15.3872 21.4097 15.3608 21.4094 15.3343V14.6174C21.4097 14.5908 21.4049 14.5645 21.3951 14.5398C21.3854 14.5152 21.3709 14.4928 21.3525 14.474C21.3342 14.4553 21.3123 14.4404 21.2883 14.4304C21.2642 14.4204 21.2385 14.4154 21.2125 14.4158H19.2998V13.6595H21.2134C21.2393 13.6599 21.2651 13.6549 21.2891 13.6449C21.3132 13.6349 21.335 13.6201 21.3534 13.6013C21.3717 13.5825 21.3862 13.5601 21.396 13.5355C21.4058 13.5109 21.4106 13.4845 21.4103 13.4579V12.733C21.4106 12.7064 21.4058 12.6801 21.396 12.6554C21.3862 12.6308 21.3717 12.6084 21.3534 12.5896C21.335 12.5708 21.3132 12.556 21.2891 12.546C21.2651 12.536 21.2393 12.531 21.2134 12.5314H19.2998V11.7751H21.2134C21.2393 11.7755 21.2651 11.7705 21.2891 11.7605C21.3132 11.7505 21.335 11.7357 21.3534 11.7169C21.3717 11.6981 21.3862 11.6757 21.396 11.6511C21.4058 11.6265 21.4106 11.6001 21.4103 11.5735V10.8567C21.4079 10.804 21.3864 10.7541 21.35 10.7168C21.3136 10.6795 21.2649 10.6574 21.2134 10.655L21.2125 10.6524ZM28.3438 5.15235V23.1273C28.3375 24.4869 27.8046 25.7884 26.8621 26.746C25.9196 27.7037 24.6446 28.2391 23.3169 28.2348H5.76877C4.44071 28.2272 3.16979 27.6805 2.2348 26.7146C1.29981 25.7488 0.777084 24.4425 0.781275 23.0825V5.10755C0.788682 3.74829 1.32193 2.44747 2.26417 1.49011C3.20642 0.532744 4.48082 -0.00309054 5.80815 1.34104e-05H23.3563C24.6847 0.00641607 25.9563 0.552735 26.8915 1.51889C27.8268 2.48503 28.3491 3.79195 28.3438 5.15235ZM24.5541 12.8764C24.5541 8.27691 20.0505 4.53497 14.5196 4.53497C8.98877 4.53497 4.48515 8.27691 4.48515 12.8764C4.48515 16.9982 8.0534 20.4499 12.8773 21.1049C14.0524 21.3629 13.9168 21.8038 13.6525 23.423C13.6096 23.681 13.4495 24.4373 14.5196 23.9776C17.4289 22.4096 20.0884 20.3977 22.4069 18.0108C23.7463 16.6496 24.5163 14.8084 24.5541 12.8764Z"/>
</mask>
<path d="M17.5218 10.854V15.3343C17.5221 15.3608 17.5173 15.3872 17.5075 15.4118C17.4977 15.4365 17.4832 15.4588 17.4649 15.4776C17.4465 15.4964 17.4247 15.5113 17.4007 15.5213C17.3766 15.5313 17.3508 15.5362 17.3249 15.5359H16.6249C16.5939 15.5356 16.5634 15.5282 16.5356 15.514C16.5079 15.4999 16.4837 15.4795 16.4648 15.4543L14.4575 12.6837V15.3423C14.4579 15.3689 14.453 15.3953 14.4433 15.4199C14.4335 15.4445 14.419 15.4669 14.4006 15.4857C14.3823 15.5045 14.3604 15.5193 14.3364 15.5293C14.3124 15.5393 14.2866 15.5443 14.2606 15.5439H13.5606C13.5347 15.5443 13.5089 15.5393 13.4849 15.5293C13.4608 15.5193 13.439 15.5045 13.4206 15.4857C13.4023 15.4669 13.3878 15.4445 13.378 15.4199C13.3683 15.3953 13.3634 15.3689 13.3638 15.3423V10.862C13.3634 10.8355 13.3683 10.8091 13.378 10.7845C13.3878 10.7598 13.4023 10.7375 13.4206 10.7187C13.439 10.6999 13.4608 10.685 13.4849 10.675C13.5089 10.665 13.5347 10.6601 13.5606 10.6604H14.2563C14.2882 10.66 14.3198 10.668 14.3478 10.6837C14.3759 10.6994 14.3995 10.7222 14.4164 10.75L16.4219 13.5224V10.8602C16.4215 10.8337 16.4264 10.8073 16.4362 10.7827C16.4459 10.758 16.4604 10.7357 16.4788 10.7169C16.4971 10.6981 16.519 10.6832 16.543 10.6732C16.5671 10.6632 16.5928 10.6583 16.6188 10.6586H17.3188C17.3447 10.6574 17.3706 10.6616 17.395 10.6708C17.4193 10.68 17.4416 10.6942 17.4606 10.7124C17.4795 10.7306 17.4947 10.7525 17.5052 10.7768C17.5157 10.8011 17.5213 10.8274 17.5218 10.854ZM12.4765 10.6524H11.7765C11.7506 10.652 11.7248 10.657 11.7008 10.667C11.6767 10.677 11.6549 10.6918 11.6365 10.7106C11.6182 10.7294 11.6037 10.7518 11.5939 10.7764C11.5841 10.801 11.5793 10.8274 11.5796 10.854V15.3343C11.5793 15.3608 11.5841 15.3872 11.5939 15.4118C11.6037 15.4365 11.6182 15.4588 11.6365 15.4776C11.6549 15.4964 11.6767 15.5113 11.7008 15.5213C11.7248 15.5313 11.7506 15.5362 11.7765 15.5359H12.4765C12.5025 15.5362 12.5282 15.5313 12.5523 15.5213C12.5763 15.5113 12.5982 15.4964 12.6165 15.4776C12.6349 15.4588 12.6494 15.4365 12.6591 15.4118C12.6689 15.3872 12.6737 15.3608 12.6734 15.3343V10.854C12.6729 10.8006 12.652 10.7496 12.6152 10.7119C12.5784 10.6742 12.5286 10.6528 12.4765 10.6524ZM10.7843 14.4077H8.87152V10.854C8.87187 10.8274 8.86702 10.801 8.85725 10.7764C8.84749 10.7518 8.833 10.7294 8.81464 10.7106C8.79629 10.6918 8.77445 10.677 8.7504 10.667C8.72636 10.657 8.7006 10.652 8.67465 10.6524H7.97465C7.9487 10.652 7.92294 10.657 7.89889 10.667C7.87485 10.677 7.853 10.6918 7.83465 10.7106C7.8163 10.7294 7.80181 10.7518 7.79204 10.7764C7.78227 10.801 7.77742 10.8274 7.77777 10.854V15.3343C7.77702 15.3601 7.78153 15.3857 7.79102 15.4097C7.80051 15.4336 7.81478 15.4552 7.8329 15.4732C7.8699 15.5082 7.91812 15.5283 7.96852 15.5296H10.7799C10.8058 15.53 10.8316 15.525 10.8557 15.515C10.8797 15.505 10.9015 15.4902 10.9199 15.4714C10.9382 15.4526 10.9527 15.4302 10.9625 15.4056C10.9723 15.3809 10.9771 15.3546 10.9768 15.328V14.6111C10.9768 14.5587 10.9569 14.5084 10.9213 14.4708C10.8857 14.4331 10.8372 14.4112 10.786 14.4095L10.7843 14.4077ZM21.2125 10.6524H18.4011C18.3491 10.6528 18.2993 10.6742 18.2624 10.7119C18.2256 10.7496 18.2047 10.8006 18.2043 10.854V15.3343C18.2047 15.3876 18.2256 15.4386 18.2624 15.4763C18.2993 15.514 18.3491 15.5354 18.4011 15.5359H21.2125C21.2385 15.5362 21.2642 15.5313 21.2883 15.5213C21.3123 15.5113 21.3342 15.4964 21.3525 15.4776C21.3709 15.4588 21.3854 15.4365 21.3951 15.4118C21.4049 15.3872 21.4097 15.3608 21.4094 15.3343V14.6174C21.4097 14.5908 21.4049 14.5645 21.3951 14.5398C21.3854 14.5152 21.3709 14.4928 21.3525 14.474C21.3342 14.4553 21.3123 14.4404 21.2883 14.4304C21.2642 14.4204 21.2385 14.4154 21.2125 14.4158H19.2998V13.6595H21.2134C21.2393 13.6599 21.2651 13.6549 21.2891 13.6449C21.3132 13.6349 21.335 13.6201 21.3534 13.6013C21.3717 13.5825 21.3862 13.5601 21.396 13.5355C21.4058 13.5109 21.4106 13.4845 21.4103 13.4579V12.733C21.4106 12.7064 21.4058 12.6801 21.396 12.6554C21.3862 12.6308 21.3717 12.6084 21.3534 12.5896C21.335 12.5708 21.3132 12.556 21.2891 12.546C21.2651 12.536 21.2393 12.531 21.2134 12.5314H19.2998V11.7751H21.2134C21.2393 11.7755 21.2651 11.7705 21.2891 11.7605C21.3132 11.7505 21.335 11.7357 21.3534 11.7169C21.3717 11.6981 21.3862 11.6757 21.396 11.6511C21.4058 11.6265 21.4106 11.6001 21.4103 11.5735V10.8567C21.4079 10.804 21.3864 10.7541 21.35 10.7168C21.3136 10.6795 21.2649 10.6574 21.2134 10.655L21.2125 10.6524ZM28.3438 5.15235V23.1273C28.3375 24.4869 27.8046 25.7884 26.8621 26.746C25.9196 27.7037 24.6446 28.2391 23.3169 28.2348H5.76877C4.44071 28.2272 3.16979 27.6805 2.2348 26.7146C1.29981 25.7488 0.777084 24.4425 0.781275 23.0825V5.10755C0.788682 3.74829 1.32193 2.44747 2.26417 1.49011C3.20642 0.532744 4.48082 -0.00309054 5.80815 1.34104e-05H23.3563C24.6847 0.00641607 25.9563 0.552735 26.8915 1.51889C27.8268 2.48503 28.3491 3.79195 28.3438 5.15235ZM24.5541 12.8764C24.5541 8.27691 20.0505 4.53497 14.5196 4.53497C8.98877 4.53497 4.48515 8.27691 4.48515 12.8764C4.48515 16.9982 8.0534 20.4499 12.8773 21.1049C14.0524 21.3629 13.9168 21.8038 13.6525 23.423C13.6096 23.681 13.4495 24.4373 14.5196 23.9776C17.4289 22.4096 20.0884 20.3977 22.4069 18.0108C23.7463 16.6496 24.5163 14.8084 24.5541 12.8764Z" stroke="#333333" stroke-width="1" mask="url(#path-1-inside-1_746_8257)"/>
</g>
</svg>
