<svg width="197" height="82" viewBox="0 0 197 82" fill="none" xmlns="http://www.w3.org/2000/svg">
<rect x="0.25" y="0.25" width="196.5" height="81.5" fill="white" stroke="#333333" stroke-width="0.5"/>
<path d="M20.43 22.12L20.64 22.06C20.84 22.36 20.98 22.61 21.27 22.61C21.91 22.61 25.79 22.19 26.37 22.1C26.58 22.07 26.67 21.93 26.84 21.93C27.11 21.93 27.82 22.54 27.82 22.82C27.82 23.05 27.42 23.09 27.2 23.26C26.77 23.58 25.88 24.22 24.97 24.73C24.97 24.78 24.96 24.83 24.94 24.89C24.19 26.93 23.15 28.33 21.04 29.41L20.88 29.2C22.86 27.99 24.09 25.61 24.09 24.93C24.09 24.63 23.72 24.48 23.28 24.33L23.33 24.11C23.62 24.11 23.79 24.11 23.97 24.15C24.29 24.2 24.57 24.3 24.75 24.42C25.52 23.88 26.33 23.2 26.62 22.79C26.75 22.6 26.71 22.56 26.5 22.56C26.02 22.56 23.18 22.96 22.06 23.18C21.67 23.26 21.66 23.44 21.42 23.44C21.17 23.44 20.71 23.04 20.56 22.73C20.48 22.56 20.46 22.35 20.43 22.12ZM30.2073 24.83L30.4073 24.77C30.6273 25.11 30.7873 25.42 31.2073 25.42C32.0973 25.42 35.5973 25.19 36.0573 25.17C36.7273 25.12 37.0073 25.06 37.2673 25.06C37.6473 25.06 38.0973 25.23 38.0973 25.5C38.0973 25.68 37.9973 25.79 37.6573 25.79C37.3073 25.79 36.9573 25.77 36.3473 25.77C35.7173 25.77 32.9073 25.92 32.1573 26.01C31.5873 26.07 31.4773 26.22 31.1873 26.22C30.9073 26.22 30.4373 25.73 30.2973 25.39C30.2273 25.2 30.2173 25.03 30.2073 24.83ZM42.9673 21.75L42.9573 21.54C43.2173 21.48 43.4073 21.42 43.5973 21.42C44.0173 21.42 44.6973 21.8 44.6973 22.03C44.6973 22.23 44.5173 22.27 44.4773 22.6C44.4273 23.08 44.4073 23.81 44.3973 24.36C45.3673 24.58 46.3173 24.93 46.8673 25.28C47.1673 25.47 47.4273 25.72 47.4273 26.03C47.4273 26.2 47.3173 26.37 47.1073 26.37C46.7773 26.37 46.6673 26.03 46.0673 25.57C45.6173 25.26 45.0773 24.97 44.3973 24.71C44.3873 25.4 44.3773 27.04 44.3873 28.1C44.3973 28.54 44.4173 28.84 44.4173 29.01C44.4173 29.27 44.3173 29.39 44.0973 29.39C43.7673 29.39 43.5973 28.84 43.5973 28.5C43.5973 28.28 43.6873 28.1 43.7273 27.72C43.8073 26.98 43.8073 25.34 43.8073 24.58C43.8073 23.78 43.8073 22.69 43.7473 22.19C43.7173 21.87 43.4973 21.81 42.9673 21.75ZM53.0073 21.51H51.7173V23H53.0073V21.51ZM51.7173 24.81H53.0073V23.29H51.7173V24.81ZM51.7173 26.67H53.0073V25.1H51.7173V26.67ZM51.7173 26.96V27.35C51.7173 27.4 51.5273 27.55 51.2173 27.55H51.1273V20.92L51.8373 21.21H52.9573L53.2773 20.82L54.0173 21.39C53.9473 21.48 53.8273 21.54 53.6173 21.57V27.23C53.6173 27.27 53.3673 27.44 53.0973 27.44H53.0073V26.96H51.7173ZM50.6673 29.76L50.5673 29.63C51.0973 29.03 51.5173 28.07 51.6973 27.39L52.5873 27.76C52.5273 27.87 52.4573 27.92 52.2273 27.89C51.9173 28.5 51.3673 29.28 50.6673 29.76ZM52.5173 27.48L52.6473 27.42C54.4373 28.41 53.8473 29.71 53.2473 29.19C53.2073 28.64 52.8473 27.92 52.5173 27.48ZM56.9773 27.59H58.2373V26.53H56.9773V27.59ZM55.1273 26.53V27.59H56.3773V26.53H55.1273ZM56.3773 25.23H55.1273V26.23H56.3773V25.23ZM58.2373 25.23H56.9773V26.23H58.2373V25.23ZM55.9573 23.07V23.93H57.3473V23.07H55.9573ZM55.9573 21.97V22.77H57.3473V21.97H55.9573ZM58.8673 27.59L59.2373 27.08C59.2373 27.08 59.6773 27.45 59.9173 27.72C59.8973 27.83 59.8073 27.88 59.6773 27.88H58.8573V28.88C58.8573 29.36 58.7573 29.67 57.8773 29.76C57.8573 29.57 57.7973 29.41 57.6773 29.32C57.5373 29.22 57.2973 29.14 56.8773 29.09V28.92C56.8773 28.92 57.8173 29 58.0173 29C58.1873 29 58.2373 28.94 58.2373 28.79V27.88H55.1273V29.57C55.1273 29.63 54.8873 29.78 54.6473 29.78H54.5373V27.88H53.8273L53.7473 27.59H54.5373V24.63L55.1773 24.94H56.3773V24.22H53.8773L53.7973 23.93H55.3573V23.07H54.1973L54.1173 22.77H55.3573V21.97H54.0273L53.9573 21.68H55.3573V20.67L56.2773 20.77C56.2573 20.9 56.1673 20.99 55.9573 21.02V21.68H57.3473V20.67L58.2673 20.77C58.2473 20.9 58.1673 20.99 57.9573 21.02V21.68H58.3673L58.8073 21.13C58.8073 21.13 59.2973 21.53 59.6073 21.82C59.5773 21.93 59.4773 21.97 59.3473 21.97H57.9573V22.77H58.3673L58.7373 22.3C58.7373 22.3 59.1573 22.66 59.4273 22.91C59.3973 23.02 59.3073 23.07 59.1673 23.07H57.9573V23.93H58.6073L59.0273 23.39C59.0273 23.39 59.5273 23.77 59.8173 24.06C59.7973 24.17 59.7073 24.22 59.5673 24.22H56.9773V24.94H58.1373L58.4573 24.54L59.2673 25.15C59.2073 25.23 59.0473 25.31 58.8573 25.34V27.59H58.8673ZM65.1373 21.47L65.5473 20.83L66.6673 21.65C66.5073 21.84 66.1473 21.95 65.6473 21.99L65.6573 22.48C65.9973 25.61 67.5273 27.95 70.3373 29.1L70.2973 29.22C69.9573 29.23 69.7473 29.42 69.5973 29.79C67.9173 28.86 66.1573 26.92 65.7073 24.36C65.0573 26.9 63.4973 28.74 61.2173 29.78L61.1173 29.63C63.3373 28.45 65.0173 26.02 65.3473 22.51V21.76H63.0673L62.9873 21.47H65.1373ZM75.2673 24.12L75.9773 24.57C75.9173 24.65 75.7873 24.73 75.5973 24.67C75.2973 24.95 74.9473 25.24 74.6373 25.46C76.0673 26.15 75.7473 27.16 75.1573 26.83C74.9773 26.34 74.4073 25.76 73.8973 25.38V29.56C73.8973 29.61 73.6773 29.76 73.3673 29.76H73.2673V25.6C72.7673 26.09 72.2073 26.54 71.6073 26.92L71.4773 26.79C72.7073 25.76 73.9573 24.16 74.5973 22.77H71.7973L71.7073 22.48H73.2673V20.65L74.2573 20.76C74.2373 20.9 74.1373 21 73.9073 21.03V22.48H74.6073L75.0373 22.08L75.7473 22.72C75.6673 22.8 75.5573 22.82 75.3173 22.83C74.9673 23.52 74.4873 24.24 73.8973 24.93V25.18C74.0773 25.23 74.2473 25.29 74.3973 25.35C74.6573 25.04 74.9873 24.57 75.2673 24.12ZM80.1073 21.49L80.8773 22.14C80.8073 22.22 80.6873 22.28 80.4573 22.31C80.3873 26.15 80.1673 28.54 79.6773 29.15C79.3873 29.5 78.9873 29.66 78.4973 29.66C78.4973 29.44 78.4573 29.26 78.3173 29.16C78.1673 29.04 77.7173 28.92 77.3173 28.85L77.3273 28.67C77.7873 28.72 78.5073 28.8 78.7473 28.8C78.9573 28.8 79.0373 28.76 79.1473 28.64C79.5573 28.25 79.7473 25.8 79.8273 22.22H77.9773C77.8573 25.38 77.6273 28.05 74.5073 29.79L74.3873 29.65C76.9873 27.64 77.2273 25.08 77.2973 22.22H75.5473L75.4573 21.93H79.7273L80.1073 21.49ZM86.3673 25.29C86.6773 24.7 86.9373 24.06 87.1273 23.48C86.3073 23.52 85.5873 23.73 84.8973 24.25C84.9973 24.62 85.1373 25.03 85.3273 25.39C85.4773 25.67 85.6673 25.91 85.8673 26.1C86.0573 25.85 86.2273 25.57 86.3673 25.29ZM84.8373 27.24C85.0473 27.09 85.2673 26.86 85.4873 26.6C85.1973 26.28 84.9673 25.89 84.7973 25.53C84.6673 25.24 84.5473 24.93 84.4573 24.64C83.7573 25.35 83.3773 26.28 83.3773 26.86C83.3773 27.42 83.5773 27.65 83.8573 27.65C84.2573 27.65 84.5073 27.5 84.8373 27.24ZM88.0173 22.58L87.8573 23.1C89.6173 23.28 90.6573 24.51 90.6573 26.02C90.6573 27.58 89.6573 29.09 86.1373 29.3L86.0873 29.06C89.1873 28.55 89.9473 27.16 89.9473 25.87C89.9473 24.69 89.0573 23.63 87.7273 23.49C87.5273 24.07 87.2773 24.73 86.8473 25.54C86.6573 25.89 86.4873 26.2 86.3173 26.46C86.3773 26.49 86.4273 26.53 86.4873 26.56C86.6773 26.66 86.8473 26.79 86.8473 26.99C86.8473 27.17 86.7173 27.25 86.5373 27.25C86.3373 27.25 86.0973 27.12 85.9273 26.99C85.6773 27.29 85.4173 27.53 85.1173 27.76C84.7173 28.07 84.2673 28.33 83.6973 28.33C83.1173 28.33 82.8573 27.74 82.8573 27.13C82.8573 25.76 83.7773 24.67 84.3173 24.21C84.2473 23.97 84.1773 23.74 84.1073 23.55C83.9773 23.17 83.6673 22.86 83.1973 22.46L83.3273 22.32C83.5673 22.39 83.8173 22.49 83.9973 22.61C84.2273 22.76 84.5773 22.98 84.6873 23.42C84.7173 23.54 84.7573 23.7 84.7973 23.86C85.4173 23.45 86.1673 23.11 87.2473 23.08C87.3473 22.7 87.4273 22.35 87.4573 22.08C87.4773 21.85 87.3673 21.79 87.1873 21.74C87.0073 21.69 86.8173 21.67 86.5773 21.67L86.5573 21.46C86.7173 21.39 86.9473 21.32 87.1373 21.32C87.5973 21.32 88.2573 21.71 88.2573 21.97C88.2573 22.17 88.1073 22.31 88.0173 22.58ZM92.9573 22.82L93.1473 22.76C93.2873 23.02 93.5573 23.26 93.7773 23.26C94.2973 23.26 96.2273 22.68 97.8773 22.3C99.0273 22.03 99.8073 21.89 100.147 21.89C100.407 21.89 100.697 21.93 100.857 22C101.077 22.1 101.157 22.21 101.157 22.35C101.157 22.49 101.037 22.61 100.817 22.61C100.627 22.61 100.327 22.58 99.9573 22.58C99.4773 22.58 98.7773 22.64 98.2773 22.95C97.8273 23.22 96.8273 24.15 96.8273 26.15C96.8273 27.24 97.2773 27.69 97.6773 27.94C98.3273 28.33 99.2073 28.27 99.6173 28.27C99.8573 28.27 100.187 28.44 100.187 28.69C100.187 28.93 99.9173 29.02 99.4673 29.02C98.8873 29.02 97.8973 28.98 97.2173 28.46C96.5873 28 96.2573 27.4 96.2573 26.27C96.2573 25.09 96.6273 23.77 97.7573 22.88C97.8273 22.82 97.8173 22.76 97.7073 22.79C96.5873 23.06 95.1673 23.53 94.5673 23.81C94.3673 23.9 94.1673 24.06 93.9573 24.06C93.5873 24.06 93.0873 23.62 92.9973 23.28C92.9573 23.12 92.9673 22.97 92.9573 22.82ZM107.527 23.39C107.527 23.03 107.417 22.77 107.247 22.47C106.547 22.61 105.867 22.96 105.357 23.46C104.717 24.08 104.327 24.89 104.327 25.77C104.327 26.73 104.767 27.46 105.177 27.46C105.837 27.46 106.757 25.88 107.167 24.93C107.357 24.45 107.527 23.84 107.527 23.39ZM107.357 29.04L107.317 28.81C109.767 28.38 110.947 27.12 110.947 25.31C110.947 23.53 109.627 22.39 107.977 22.39C107.857 22.39 107.737 22.4 107.617 22.41C107.847 22.73 108.047 23.08 108.047 23.47C108.047 23.95 107.937 24.51 107.737 25.08C107.317 26.28 106.157 28.22 105.137 28.22C104.467 28.22 103.767 27.16 103.767 25.93C103.767 24.92 104.247 23.88 105.097 23.12C105.917 22.39 106.947 22.05 108.017 22.05C110.077 22.05 111.667 23.4 111.667 25.47C111.667 27.13 110.627 28.83 107.357 29.04ZM121.367 22.53L121.867 21.9C121.867 21.9 122.447 22.34 122.787 22.66C122.757 22.77 122.677 22.81 122.527 22.81H117.697C117.647 23.46 117.587 24.07 117.487 24.65H120.387L120.787 24.24L121.547 24.88C121.477 24.96 121.357 25.01 121.137 25.04C121.027 27.14 120.757 28.91 120.267 29.36C119.987 29.63 119.567 29.77 119.077 29.76C119.077 29.56 119.027 29.37 118.857 29.28C118.677 29.16 118.117 29.04 117.647 28.96V28.79C118.187 28.84 119.147 28.93 119.397 28.93C119.607 28.93 119.697 28.91 119.817 28.8C120.157 28.52 120.377 26.87 120.477 24.95H117.427C117.007 27.07 116.057 28.67 113.787 29.79L113.697 29.66C116.147 28 116.787 25.77 116.907 22.81H113.717L113.637 22.53H117.847V20.6L118.877 20.71C118.857 20.85 118.757 20.95 118.517 20.98V22.53H121.367ZM126.907 25.24L127.147 25.36C126.937 25.88 126.477 27.01 126.367 27.39C126.267 27.7 126.197 27.93 126.197 28.11C126.197 28.4 126.397 28.72 126.397 28.96C126.397 29.15 126.297 29.26 126.107 29.26C125.927 29.26 125.767 29.1 125.637 28.89C125.367 28.48 125.057 27.58 125.057 26.65C125.057 25.46 125.377 24.61 125.537 24.01C125.657 23.53 125.777 23.18 125.787 22.85C125.797 22.49 125.557 22.16 125.227 21.8L125.387 21.67C125.587 21.76 125.727 21.84 125.897 21.97C126.107 22.14 126.547 22.6 126.547 23.02C126.547 23.25 126.407 23.43 126.167 24.03C125.907 24.59 125.527 25.49 125.527 26.48C125.527 27.01 125.607 27.21 125.687 27.34C125.747 27.46 125.817 27.48 125.907 27.35C126.127 27 126.687 25.75 126.907 25.24ZM127.917 26.26L128.147 26.22C128.207 26.46 128.297 26.84 128.437 27.09C128.777 27.68 129.307 28.03 130.537 28.03C131.617 28.03 131.997 27.85 132.237 27.85C132.507 27.85 132.767 27.94 132.767 28.17C132.767 28.57 131.837 28.69 130.757 28.69C129.197 28.69 128.347 28.17 128.047 27.15C127.957 26.85 127.917 26.53 127.917 26.26ZM128.357 23.33L128.257 23.09C129.057 22.65 129.947 22.47 130.647 22.47C131.337 22.47 131.717 22.54 132.037 22.68C132.247 22.77 132.337 22.91 132.337 23.03C132.337 23.16 132.277 23.25 132.067 23.28C131.827 23.31 131.577 23.33 131.247 23.47C130.807 23.67 130.097 24.07 129.607 24.38L129.437 24.2C129.887 23.88 130.597 23.36 130.807 23.18C130.927 23.07 130.917 23 130.257 23C129.847 23 129.197 23.06 128.357 23.33ZM137.697 28.21V26.68C137.217 27 136.707 27.44 136.287 27.83C136.657 28.02 137.107 28.25 137.417 28.39C137.627 28.48 137.697 28.4 137.697 28.21ZM138.147 25.5V25.93C138.987 25.5 139.907 25.16 140.917 25.16C142.067 25.16 142.887 25.88 142.887 26.99C142.887 28.01 142.117 28.84 140.857 28.84C140.147 28.84 139.497 28.53 138.977 27.84L139.137 27.68C139.537 28 140.037 28.28 140.717 28.28C141.707 28.28 142.257 27.65 142.257 26.86C142.257 26.11 141.777 25.53 140.707 25.53C139.877 25.53 138.947 25.95 138.157 26.4C138.197 27.76 138.307 28.13 138.307 28.49C138.307 28.94 138.037 29.4 137.737 29.4C137.507 29.4 137.487 29.09 137.167 28.8C136.947 28.61 136.467 28.25 136.097 28.01C135.797 28.29 135.667 28.37 135.527 28.37C135.417 28.37 135.307 28.3 135.207 28.2C135.077 28.07 135.027 27.94 135.027 27.79C135.027 27.56 135.087 27.48 135.307 27.5C135.577 27.54 135.707 27.49 135.877 27.39C136.247 27.17 137.027 26.56 137.697 26.18V25.6V24.25C137.337 24.34 136.887 24.43 136.597 24.43C136.107 24.43 135.687 24.34 135.277 23.43L135.447 23.3C135.957 23.8 136.107 23.9 136.637 23.88C136.917 23.87 137.297 23.81 137.697 23.7C137.697 22.96 137.707 22.29 137.697 22.05C137.697 21.83 137.657 21.79 137.497 21.74C137.327 21.68 137.127 21.67 136.867 21.67L136.837 21.48C137.047 21.37 137.287 21.29 137.537 21.29C137.917 21.29 138.557 21.61 138.557 21.85C138.557 22.09 138.407 22.24 138.337 22.56C138.287 22.77 138.247 23.12 138.217 23.54C138.997 23.25 139.327 22.92 139.537 22.91C139.717 22.91 139.977 22.95 139.987 23.17C139.987 23.34 139.877 23.46 139.667 23.56C139.297 23.75 138.667 23.96 138.187 24.11C138.157 24.56 138.147 25.04 138.147 25.5ZM140.727 22.8L140.707 22.54C141.207 22.44 141.597 22.41 142.037 22.49C142.807 22.64 143.527 23.3 143.557 23.93C143.567 24.13 143.497 24.3 143.307 24.32C143.077 24.37 142.987 24.11 142.667 24.17C142.497 24.19 142.107 24.37 141.897 24.47L141.787 24.29C141.987 24.16 142.447 23.88 142.587 23.74C142.697 23.62 142.707 23.54 142.597 23.38C142.197 22.82 141.427 22.75 140.727 22.8ZM149.707 26.83C150.207 26.83 150.467 26.59 150.467 25.9C150.467 25.25 150.147 24.92 149.717 24.92C149.217 24.92 148.897 25.36 148.897 25.87C148.897 26.44 149.247 26.83 149.707 26.83ZM149.197 21.63L149.177 21.43C149.357 21.34 149.597 21.22 149.857 21.22C150.267 21.22 150.887 21.44 150.887 21.69C150.887 21.92 150.737 22.08 150.717 22.33C150.707 22.46 150.707 22.66 150.697 22.9C152.347 22.72 152.987 22.63 153.197 22.63C153.547 22.63 154.067 22.82 154.067 23.14C154.067 23.32 153.977 23.4 153.787 23.4C153.467 23.4 152.707 23.16 150.697 23.33C150.697 23.81 150.707 24.37 150.707 24.87C150.997 25.17 151.127 25.64 151.127 26.22C151.127 28.05 149.747 29.17 147.817 29.65L147.687 29.4C148.907 28.95 149.907 28.24 150.267 27.26C149.287 27.71 148.487 26.94 148.487 25.92C148.487 25.19 148.977 24.51 149.797 24.51C149.947 24.51 150.077 24.53 150.207 24.56C150.197 24.26 150.177 23.83 150.157 23.38C149.177 23.49 148.117 23.72 147.507 23.87C147.057 23.98 146.857 24.14 146.597 24.14C146.267 24.14 145.797 23.69 145.687 23.41C145.617 23.24 145.597 23.01 145.587 22.81L145.777 22.74C145.997 23.07 146.187 23.39 146.527 23.39C146.897 23.4 148.957 23.09 150.137 22.96C150.127 22.6 150.107 22.26 150.087 22.01C150.067 21.81 150.017 21.75 149.857 21.7C149.707 21.66 149.497 21.65 149.197 21.63ZM160.305 26.83C160.805 26.83 161.065 26.59 161.065 25.9C161.065 25.25 160.745 24.92 160.315 24.92C159.815 24.92 159.495 25.36 159.495 25.87C159.495 26.44 159.845 26.83 160.305 26.83ZM159.795 21.63L159.775 21.43C159.955 21.34 160.195 21.22 160.455 21.22C160.865 21.22 161.485 21.44 161.485 21.69C161.485 21.92 161.335 22.08 161.315 22.33C161.305 22.46 161.305 22.66 161.295 22.9C162.945 22.72 163.585 22.63 163.795 22.63C164.145 22.63 164.665 22.82 164.665 23.14C164.665 23.32 164.575 23.4 164.385 23.4C164.065 23.4 163.305 23.16 161.295 23.33C161.295 23.81 161.305 24.37 161.305 24.87C161.595 25.17 161.725 25.64 161.725 26.22C161.725 28.05 160.345 29.17 158.415 29.65L158.285 29.4C159.505 28.95 160.505 28.24 160.865 27.26C159.885 27.71 159.085 26.94 159.085 25.92C159.085 25.19 159.575 24.51 160.395 24.51C160.545 24.51 160.675 24.53 160.805 24.56C160.795 24.26 160.775 23.83 160.755 23.38C159.775 23.49 158.715 23.72 158.105 23.87C157.655 23.98 157.455 24.14 157.195 24.14C156.865 24.14 156.395 23.69 156.285 23.41C156.215 23.24 156.195 23.01 156.185 22.81L156.375 22.74C156.595 23.07 156.785 23.39 157.125 23.39C157.495 23.4 159.555 23.09 160.735 22.96C160.725 22.6 160.705 22.26 160.685 22.01C160.665 21.81 160.615 21.75 160.455 21.7C160.305 21.66 160.095 21.65 159.795 21.63ZM170.465 25.29C170.775 24.7 171.035 24.06 171.225 23.48C170.405 23.52 169.685 23.73 168.995 24.25C169.095 24.62 169.235 25.03 169.425 25.39C169.575 25.67 169.765 25.91 169.965 26.1C170.155 25.85 170.325 25.57 170.465 25.29ZM168.935 27.24C169.145 27.09 169.365 26.86 169.585 26.6C169.295 26.28 169.065 25.89 168.895 25.53C168.765 25.24 168.645 24.93 168.555 24.64C167.855 25.35 167.475 26.28 167.475 26.86C167.475 27.42 167.675 27.65 167.955 27.65C168.355 27.65 168.605 27.5 168.935 27.24ZM172.115 22.58L171.955 23.1C173.715 23.28 174.755 24.51 174.755 26.02C174.755 27.58 173.755 29.09 170.235 29.3L170.185 29.06C173.285 28.55 174.045 27.16 174.045 25.87C174.045 24.69 173.155 23.63 171.825 23.49C171.625 24.07 171.375 24.73 170.945 25.54C170.755 25.89 170.585 26.2 170.415 26.46C170.475 26.49 170.525 26.53 170.585 26.56C170.775 26.66 170.945 26.79 170.945 26.99C170.945 27.17 170.815 27.25 170.635 27.25C170.435 27.25 170.195 27.12 170.025 26.99C169.775 27.29 169.515 27.53 169.215 27.76C168.815 28.07 168.365 28.33 167.795 28.33C167.215 28.33 166.955 27.74 166.955 27.13C166.955 25.76 167.875 24.67 168.415 24.21C168.345 23.97 168.275 23.74 168.205 23.55C168.075 23.17 167.765 22.86 167.295 22.46L167.425 22.32C167.665 22.39 167.915 22.49 168.095 22.61C168.325 22.76 168.675 22.98 168.785 23.42C168.815 23.54 168.855 23.7 168.895 23.86C169.515 23.45 170.265 23.11 171.345 23.08C171.445 22.7 171.525 22.35 171.555 22.08C171.575 21.85 171.465 21.79 171.285 21.74C171.105 21.69 170.915 21.67 170.675 21.67L170.655 21.46C170.815 21.39 171.045 21.32 171.235 21.32C171.695 21.32 172.355 21.71 172.355 21.97C172.355 22.17 172.205 22.31 172.115 22.58Z" fill="#333333"/>
<path d="M27.656 52.816H28.504L28.36 56H19.832V55.424L21.496 55.248C21.544 53.712 21.544 52.16 21.544 50.624V49.728C21.544 48.144 21.544 46.592 21.496 45.072L19.832 44.896V44.336H24.584V44.896L22.92 45.072C22.872 46.608 22.872 48.176 22.872 49.808V50.928C22.872 52.224 22.872 53.76 22.92 55.28H27.144L27.656 52.816ZM35.3371 44.896L33.6731 45.072C33.6251 46.592 33.6251 48.144 33.6251 49.728V50.608C33.6251 52.144 33.6251 53.712 33.6731 55.248L35.3371 55.424V56H30.5851V55.424L32.2491 55.248C32.2971 53.728 32.2971 52.176 32.2971 50.608V49.728C32.2971 48.176 32.2971 46.608 32.2491 45.072L30.5851 44.896V44.336H35.3371V44.896ZM49.055 44.336V44.896L47.567 45.104L47.551 56.128H47.023L39.903 46.256L39.919 55.216L41.775 55.424V56H37.663V55.424L39.167 55.232L39.183 45.248L39.039 45.04L37.727 44.88V44.336H40.223L46.847 53.6L46.831 45.12L44.959 44.896V44.336H49.055ZM59.4396 52.976H60.2396L60.1276 56H51.2476V55.424L52.9116 55.248C52.9596 53.728 52.9596 52.176 52.9596 50.608V49.728C52.9596 48.176 52.9596 46.608 52.9116 45.072L51.2476 44.896V44.336H59.8076L59.9196 47.344H59.1356L58.7036 45.04H54.3356C54.2876 46.544 54.2876 48.112 54.2876 49.744H57.0876L57.3276 48.016H57.9836V52.064H57.3276L57.1036 50.384H54.2876C54.2876 52.16 54.2876 53.728 54.3356 55.28H59.0236L59.4396 52.976ZM62.596 46.176L62.9 46.08C63.124 46.496 63.556 46.88 63.908 46.88C64.74 46.88 67.828 45.952 70.468 45.344C72.308 44.912 73.556 44.688 74.1 44.688C74.516 44.688 74.98 44.752 75.236 44.864C75.588 45.024 75.716 45.2 75.716 45.424C75.716 45.648 75.524 45.84 75.172 45.84C74.868 45.84 74.388 45.792 73.796 45.792C73.028 45.792 71.908 45.888 71.108 46.384C70.388 46.816 68.788 48.304 68.788 51.504C68.788 53.248 69.508 53.968 70.148 54.368C71.188 54.992 72.596 54.896 73.252 54.896C73.636 54.896 74.164 55.168 74.164 55.568C74.164 55.952 73.732 56.096 73.012 56.096C72.084 56.096 70.5 56.032 69.412 55.2C68.404 54.464 67.876 53.504 67.876 51.696C67.876 49.808 68.468 47.696 70.276 46.272C70.388 46.176 70.372 46.08 70.196 46.128C68.404 46.56 66.132 47.312 65.172 47.76C64.852 47.904 64.532 48.16 64.196 48.16C63.604 48.16 62.804 47.456 62.66 46.912C62.596 46.656 62.612 46.416 62.596 46.176ZM73.924 47.232L74.132 46.944C74.932 47.248 75.572 47.552 75.94 47.872C76.372 48.224 76.532 48.528 76.532 48.864C76.532 49.136 76.404 49.28 76.164 49.28C75.908 49.28 75.748 48.912 75.412 48.512C75.044 48.112 74.644 47.728 73.924 47.232ZM72.5 48.288L72.724 48.016C73.524 48.336 74.148 48.72 74.548 49.088C74.932 49.456 75.092 49.728 75.092 50.048C75.092 50.304 74.948 50.464 74.708 50.464C74.468 50.464 74.292 50.096 73.972 49.68C73.62 49.296 73.188 48.784 72.5 48.288ZM90.036 47.344H84.708V49.04H90.036V47.344ZM84.708 53.488H90.036V51.696H84.708V53.488ZM84.708 49.504V51.248H90.036V49.504H84.708ZM84.804 46.88H86.004C86.036 46.384 86.068 45.792 86.1 45.152H79.572L79.428 44.704H86.116C86.148 43.984 86.18 43.232 86.196 42.592L87.812 42.72C87.78 42.944 87.604 43.12 87.284 43.168C87.236 43.632 87.204 44.16 87.156 44.704H91.172L92.02 43.664C92.02 43.664 92.948 44.384 93.54 44.896C93.492 45.072 93.332 45.152 93.108 45.152H87.108C87.06 45.776 87.012 46.384 86.964 46.88H89.876L90.468 46.208L91.764 47.216C91.652 47.344 91.396 47.456 91.092 47.52V54.304C91.076 54.416 90.564 54.688 90.196 54.688H90.036V53.952H84.708V54.4C84.708 54.528 84.308 54.784 83.86 54.784H83.684V46.352L84.804 46.88ZM91.572 55.744L92.404 54.736C92.404 54.736 93.332 55.424 93.892 55.968C93.844 56.144 93.7 56.224 93.476 56.224H81.492V56.832C81.492 56.992 81.044 57.216 80.644 57.216H80.452V47.136L82.068 47.312C82.02 47.52 81.892 47.68 81.492 47.728V55.744H91.572ZM100.596 48.72L100.468 48.256H106.116C106.516 47.28 106.916 45.984 107.14 45.024L108.804 45.44C108.756 45.632 108.564 45.792 108.212 45.776C107.828 46.512 107.172 47.472 106.532 48.256H108.612L109.364 47.328C109.364 47.328 110.228 47.984 110.724 48.48C110.692 48.656 110.548 48.72 110.324 48.72H100.596ZM102.612 45.152L102.804 45.072C105.492 46.656 104.34 48.72 103.396 47.808C103.396 46.96 102.98 45.856 102.612 45.152ZM101.124 44.928L100.996 44.464H104.884V42.688L106.436 42.848C106.404 43.056 106.26 43.2 105.892 43.264V44.464H108.5L109.204 43.584C109.204 43.584 110.004 44.208 110.484 44.688C110.436 44.848 110.292 44.928 110.068 44.928H101.124ZM101.332 49.152L101.396 49.376C100.804 49.696 100.068 50.096 99.204 50.56V55.728C99.204 56.576 99.044 57.088 97.684 57.232C97.636 56.912 97.556 56.64 97.38 56.48C97.172 56.304 96.804 56.176 96.18 56.112V55.84C96.18 55.84 97.572 55.952 97.86 55.952C98.132 55.952 98.212 55.872 98.212 55.632V51.072C97.716 51.328 97.188 51.6 96.612 51.872C96.564 52.064 96.436 52.224 96.292 52.288L95.7 50.96C96.212 50.832 97.108 50.56 98.212 50.192V46.72H96.084L95.972 46.24H98.212V42.592L99.796 42.768C99.748 42.992 99.588 43.152 99.204 43.2V46.24H99.572L100.212 45.344C100.212 45.344 100.948 46 101.38 46.464C101.348 46.64 101.204 46.72 100.98 46.72H99.204V49.872C99.892 49.648 100.612 49.408 101.332 49.152ZM107.188 51.312H104.18C103.844 52 103.46 52.736 103.124 53.392C104.196 53.584 105.124 53.808 105.908 54.048C106.516 53.296 106.916 52.4 107.188 51.312ZM108.564 50.864L109.316 49.92C109.316 49.92 110.18 50.576 110.708 51.072C110.66 51.248 110.532 51.312 110.292 51.312H108.356C108.036 52.544 107.572 53.568 106.884 54.384C110.676 55.84 110.196 57.568 109.124 57.136C108.548 56.56 107.524 55.808 106.18 55.088C104.884 56.192 102.964 56.864 100.1 57.248L100.004 56.96C102.436 56.448 104.148 55.744 105.316 54.656C104.596 54.32 103.796 53.984 102.948 53.712C102.82 53.936 102.708 54.16 102.596 54.352C102.34 54.448 101.892 54.416 101.492 54.24C101.94 53.568 102.548 52.432 103.076 51.312H100.5L100.372 50.864H103.284C103.668 50.048 103.988 49.28 104.148 48.784L105.668 49.088C105.588 49.312 105.412 49.456 105.044 49.456C104.9 49.808 104.66 50.304 104.388 50.864H108.564ZM117.236 46.336L117.94 45.408C117.94 45.408 118.74 46.064 119.22 46.544C119.188 46.72 119.028 46.8 118.804 46.8H116.596V48.272C120.084 49.664 119.284 51.84 118.212 51.088C118.004 50.288 117.252 49.28 116.596 48.592V56.848C116.596 56.992 116.148 57.232 115.78 57.232H115.556V49.408C114.868 51.008 113.956 52.464 112.82 53.712L112.596 53.504C113.86 51.648 114.756 49.168 115.284 46.8H112.996L112.868 46.336H115.556V42.608L117.156 42.8C117.108 43.04 116.98 43.184 116.596 43.248V46.336H117.236ZM120.724 55.248H125.556V51.824H120.724V55.248ZM125.556 48.016H120.724V51.344H125.556V48.016ZM125.556 44.288H120.724V47.536H125.556V44.288ZM126.004 43.152L127.3 44.192C127.188 44.32 126.916 44.448 126.596 44.512V56.688C126.58 56.8 126.084 57.088 125.716 57.088H125.556V55.696H120.724V56.72C120.724 56.864 120.34 57.136 119.86 57.136H119.668V43.312L120.788 43.84H125.396L126.004 43.152ZM135.364 50.048L135.172 49.792C139.108 48.128 139.108 45.792 139.124 42.8L140.66 42.96C140.628 43.152 140.5 43.328 140.18 43.36C140.132 44.528 140.084 45.616 139.7 46.624C140.132 46.736 140.532 46.864 140.884 46.992C141.46 46.048 142.18 44.656 142.5 43.904L143.924 44.64C143.86 44.752 143.652 44.896 143.348 44.832C142.852 45.408 141.956 46.336 141.124 47.088C144.596 48.432 144.276 50.24 143.14 49.808C142.484 48.896 140.836 47.648 139.588 46.896C139.012 48.16 137.844 49.232 135.364 50.048ZM137.172 50.448L137.444 50.464C137.796 52 137.268 53.04 136.724 53.456C136.372 53.728 135.86 53.792 135.684 53.456C135.524 53.152 135.716 52.848 136.02 52.64C136.564 52.304 137.14 51.392 137.172 50.448ZM137.204 43.968H137.492C137.748 45.328 137.348 46.32 136.9 46.736C136.612 47.008 136.116 47.104 135.924 46.8C135.764 46.528 135.94 46.208 136.212 46.016C136.676 45.664 137.172 44.768 137.204 43.968ZM134.404 44.16H130.324L130.196 43.68H132.884L133.572 42.832C133.572 42.832 134.34 43.44 134.82 43.904C134.772 44.08 134.628 44.16 134.404 44.16ZM133.62 45.696L134.324 44.816C134.324 44.816 135.092 45.456 135.588 45.92C135.54 46.08 135.396 46.16 135.172 46.16H129.62L129.492 45.696H133.62ZM130.228 47.728H133.124L133.748 46.944C133.748 46.944 134.452 47.504 134.9 47.936C134.868 48.112 134.724 48.192 134.5 48.192H130.356L130.228 47.728ZM134.5 50.24H130.356L130.228 49.776H133.124L133.748 48.976C133.748 48.976 134.452 49.552 134.9 49.984C134.868 50.16 134.724 50.24 134.5 50.24ZM131.236 55.344H133.524V52.256H131.236V55.344ZM133.908 51.168L135.156 52.128C135.044 52.24 134.82 52.368 134.5 52.432V56.272C134.484 56.384 133.988 56.608 133.652 56.608H133.524V55.824H131.236V56.88C131.236 56.976 130.836 57.216 130.42 57.216H130.26V51.312L131.316 51.776H133.364L133.908 51.168ZM142.564 50.368L144.052 51.152C143.988 51.296 143.78 51.408 143.444 51.344C142.932 51.968 141.972 52.976 141.076 53.728C141.716 54.816 142.74 55.648 144.356 56.224L144.324 56.416C143.812 56.512 143.492 56.704 143.38 57.28C141.108 56.224 140.26 54.304 139.908 51.712C139.652 54.048 138.756 55.936 134.884 57.232L134.708 56.96C139.012 55.184 138.964 52.608 138.98 48.976L140.516 49.152C140.484 49.344 140.356 49.504 140.02 49.552C140.132 51.12 140.388 52.416 140.932 53.472C141.54 52.496 142.244 51.136 142.564 50.368ZM153.716 52.528C154.516 52.528 154.932 52.144 154.932 51.04C154.932 50 154.42 49.472 153.732 49.472C152.932 49.472 152.42 50.176 152.42 50.992C152.42 51.904 152.98 52.528 153.716 52.528ZM152.9 44.208L152.868 43.888C153.156 43.744 153.54 43.552 153.956 43.552C154.612 43.552 155.604 43.904 155.604 44.304C155.604 44.672 155.364 44.928 155.332 45.328C155.316 45.536 155.316 45.856 155.3 46.24C157.94 45.952 158.964 45.808 159.3 45.808C159.86 45.808 160.692 46.112 160.692 46.624C160.692 46.912 160.548 47.04 160.244 47.04C159.732 47.04 158.516 46.656 155.3 46.928C155.3 47.696 155.316 48.592 155.316 49.392C155.78 49.872 155.988 50.624 155.988 51.552C155.988 54.48 153.78 56.272 150.692 57.04L150.484 56.64C152.436 55.92 154.036 54.784 154.612 53.216C153.044 53.936 151.764 52.704 151.764 51.072C151.764 49.904 152.548 48.816 153.86 48.816C154.1 48.816 154.308 48.848 154.516 48.896C154.5 48.416 154.468 47.728 154.436 47.008C152.868 47.184 151.172 47.552 150.196 47.792C149.476 47.968 149.156 48.224 148.74 48.224C148.212 48.224 147.46 47.504 147.284 47.056C147.172 46.784 147.14 46.416 147.124 46.096L147.428 45.984C147.78 46.512 148.084 47.024 148.628 47.024C149.22 47.04 152.516 46.544 154.404 46.336C154.388 45.76 154.356 45.216 154.324 44.816C154.292 44.496 154.212 44.4 153.956 44.32C153.716 44.256 153.38 44.24 152.9 44.208ZM170.532 55.552C170.756 55.552 170.98 55.536 171.188 55.52C170.98 54.288 170.196 53.648 169.284 53.648C168.724 53.648 168.292 53.984 168.292 54.496C168.292 55.056 168.98 55.552 170.532 55.552ZM167.06 44.24L167.348 44.192C167.556 44.656 167.764 45.136 168.18 45.136C168.82 45.136 170.836 44.624 171.556 44.416C171.908 44.304 171.956 44.144 172.18 44.144C172.66 44.144 173.54 44.816 173.54 45.248C173.54 45.552 173.172 45.568 172.612 46.064C171.796 46.736 169.668 48.8 168.948 49.6C168.836 49.696 168.9 49.824 169.028 49.76C169.764 49.488 170.708 49.2 171.78 49.2C173.86 49.2 175.636 50.56 175.588 52.784C175.556 54.784 173.764 56.432 170.74 56.432C168.948 56.432 167.732 55.712 167.732 54.56C167.732 53.712 168.484 53.056 169.524 53.056C170.676 53.056 171.876 53.792 172.132 55.36C173.732 54.912 174.532 53.792 174.564 52.544C174.612 51.136 173.54 49.728 171.572 49.728C169.268 49.728 167.652 51.168 166.308 52.896C166.068 53.2 165.94 53.296 165.7 53.28C165.508 53.28 165.268 53.04 165.284 52.64C165.3 52.352 165.444 52.128 165.812 51.76C168.324 49.136 171.22 46.384 171.892 45.312C172.036 45.072 171.94 45.008 171.748 45.04C171.236 45.152 169.844 45.648 169.156 45.92C168.852 46.048 168.628 46.288 168.372 46.288C167.764 46.288 167.172 45.6 167.044 45.136C166.98 44.88 166.996 44.544 167.06 44.24Z" fill="#333333"/>
<path d="M20 72L192.342 72L197 72" stroke="#333333" stroke-width="0.5"/>
<path d="M0 0H16L0 16V0Z" fill="#333333"/>
</svg>
