<svg width="464" height="79" viewBox="0 0 464 79" fill="none" xmlns="http://www.w3.org/2000/svg">
<rect x="0.5" y="0.5" width="463" height="78" fill="white" stroke="#333333"/>
<path d="M27.716 22.744L27.968 22.672C28.208 23.032 28.376 23.332 28.724 23.332C29.492 23.332 34.148 22.828 34.844 22.72C35.096 22.684 35.204 22.516 35.408 22.516C35.732 22.516 36.584 23.248 36.584 23.584C36.584 23.86 36.104 23.908 35.84 24.112C35.324 24.496 34.256 25.264 33.164 25.876C33.164 25.936 33.152 25.996 33.128 26.068C32.228 28.516 30.98 30.196 28.448 31.492L28.256 31.24C30.632 29.788 32.108 26.932 32.108 26.116C32.108 25.756 31.664 25.576 31.136 25.396L31.196 25.132C31.544 25.132 31.748 25.132 31.964 25.18C32.348 25.24 32.684 25.36 32.9 25.504C33.824 24.856 34.796 24.04 35.144 23.548C35.3 23.32 35.252 23.272 35 23.272C34.424 23.272 31.016 23.752 29.672 24.016C29.204 24.112 29.192 24.328 28.904 24.328C28.604 24.328 28.052 23.848 27.872 23.476C27.776 23.272 27.752 23.02 27.716 22.744ZM39.4487 25.996L39.6887 25.924C39.9527 26.332 40.1447 26.704 40.6487 26.704C41.7167 26.704 45.9167 26.428 46.4687 26.404C47.2727 26.344 47.6087 26.272 47.9207 26.272C48.3767 26.272 48.9167 26.476 48.9167 26.8C48.9167 27.016 48.7967 27.148 48.3887 27.148C47.9687 27.148 47.5487 27.124 46.8167 27.124C46.0607 27.124 42.6887 27.304 41.7887 27.412C41.1047 27.484 40.9727 27.664 40.6247 27.664C40.2887 27.664 39.7247 27.076 39.5567 26.668C39.4727 26.44 39.4607 26.236 39.4487 25.996ZM54.7607 22.3L54.7487 22.048C55.0607 21.976 55.2887 21.904 55.5167 21.904C56.0207 21.904 56.8367 22.36 56.8367 22.636C56.8367 22.876 56.6207 22.924 56.5727 23.32C56.5127 23.896 56.4887 24.772 56.4767 25.432C57.6407 25.696 58.7807 26.116 59.4407 26.536C59.8007 26.764 60.1127 27.064 60.1127 27.436C60.1127 27.64 59.9807 27.844 59.7287 27.844C59.3327 27.844 59.2007 27.436 58.4807 26.884C57.9407 26.512 57.2927 26.164 56.4767 25.852C56.4647 26.68 56.4527 28.648 56.4647 29.92C56.4767 30.448 56.5007 30.808 56.5007 31.012C56.5007 31.324 56.3807 31.468 56.1167 31.468C55.7207 31.468 55.5167 30.808 55.5167 30.4C55.5167 30.136 55.6247 29.92 55.6727 29.464C55.7687 28.576 55.7687 26.608 55.7687 25.696C55.7687 24.736 55.7687 23.428 55.6967 22.828C55.6607 22.444 55.3967 22.372 54.7607 22.3ZM66.8087 22.012H65.2607V23.8H66.8087V22.012ZM65.2607 25.972H66.8087V24.148H65.2607V25.972ZM65.2607 28.204H66.8087V26.32H65.2607V28.204ZM65.2607 28.552V29.02C65.2607 29.08 65.0327 29.26 64.6607 29.26H64.5527V21.304L65.4047 21.652H66.7487L67.1327 21.184L68.0207 21.868C67.9367 21.976 67.7927 22.048 67.5407 22.084V28.876C67.5407 28.924 67.2407 29.128 66.9167 29.128H66.8087V28.552H65.2607ZM64.0007 31.912L63.8807 31.756C64.5167 31.036 65.0207 29.884 65.2367 29.068L66.3047 29.512C66.2327 29.644 66.1487 29.704 65.8727 29.668C65.5007 30.4 64.8407 31.336 64.0007 31.912ZM66.2207 29.176L66.3767 29.104C68.5247 30.292 67.8167 31.852 67.0967 31.228C67.0487 30.568 66.6167 29.704 66.2207 29.176ZM71.5727 29.308H73.0847V28.036H71.5727V29.308ZM69.3527 28.036V29.308H70.8527V28.036H69.3527ZM70.8527 26.476H69.3527V27.676H70.8527V26.476ZM73.0847 26.476H71.5727V27.676H73.0847V26.476ZM70.3487 23.884V24.916H72.0167V23.884H70.3487ZM70.3487 22.564V23.524H72.0167V22.564H70.3487ZM73.8407 29.308L74.2847 28.696C74.2847 28.696 74.8127 29.14 75.1007 29.464C75.0767 29.596 74.9687 29.656 74.8127 29.656H73.8287V30.856C73.8287 31.432 73.7087 31.804 72.6527 31.912C72.6287 31.684 72.5567 31.492 72.4127 31.384C72.2447 31.264 71.9567 31.168 71.4527 31.108V30.904C71.4527 30.904 72.5807 31 72.8207 31C73.0247 31 73.0847 30.928 73.0847 30.748V29.656H69.3527V31.684C69.3527 31.756 69.0647 31.936 68.7767 31.936H68.6447V29.656H67.7927L67.6967 29.308H68.6447V25.756L69.4127 26.128H70.8527V25.264H67.8527L67.7567 24.916H69.6287V23.884H68.2367L68.1407 23.524H69.6287V22.564H68.0327L67.9487 22.216H69.6287V21.004L70.7327 21.124C70.7087 21.28 70.6007 21.388 70.3487 21.424V22.216H72.0167V21.004L73.1207 21.124C73.0967 21.28 73.0007 21.388 72.7487 21.424V22.216H73.2407L73.7687 21.556C73.7687 21.556 74.3567 22.036 74.7287 22.384C74.6927 22.516 74.5727 22.564 74.4167 22.564H72.7487V23.524H73.2407L73.6847 22.96C73.6847 22.96 74.1887 23.392 74.5127 23.692C74.4767 23.824 74.3687 23.884 74.2007 23.884H72.7487V24.916H73.5287L74.0327 24.268C74.0327 24.268 74.6327 24.724 74.9807 25.072C74.9567 25.204 74.8487 25.264 74.6807 25.264H71.5727V26.128H72.9647L73.3487 25.648L74.3207 26.38C74.2487 26.476 74.0567 26.572 73.8287 26.608V29.308H73.8407ZM81.3647 21.964L81.8567 21.196L83.2007 22.18C83.0087 22.408 82.5767 22.54 81.9767 22.588L81.9887 23.176C82.3967 26.932 84.2327 29.74 87.6047 31.12L87.5567 31.264C87.1487 31.276 86.8967 31.504 86.7167 31.948C84.7007 30.832 82.5887 28.504 82.0487 25.432C81.2687 28.48 79.3967 30.688 76.6607 31.936L76.5407 31.756C79.2047 30.34 81.2207 27.424 81.6167 23.212V22.312H78.8807L78.7847 21.964H81.3647ZM30.884 43.144L31.736 43.684C31.664 43.78 31.508 43.876 31.28 43.804C30.92 44.14 30.5 44.488 30.128 44.752C31.844 45.58 31.46 46.792 30.752 46.396C30.536 45.808 29.852 45.112 29.24 44.656V49.672C29.24 49.732 28.976 49.912 28.604 49.912H28.484V44.92C27.884 45.508 27.212 46.048 26.492 46.504L26.336 46.348C27.812 45.112 29.312 43.192 30.08 41.524H26.72L26.612 41.176H28.484V38.98L29.672 39.112C29.648 39.28 29.528 39.4 29.252 39.436V41.176H30.092L30.608 40.696L31.46 41.464C31.364 41.56 31.232 41.584 30.944 41.596C30.524 42.424 29.948 43.288 29.24 44.116V44.416C29.456 44.476 29.66 44.548 29.84 44.62C30.152 44.248 30.548 43.684 30.884 43.144ZM36.692 39.988L37.616 40.768C37.532 40.864 37.388 40.936 37.112 40.972C37.028 45.58 36.764 48.448 36.176 49.18C35.828 49.6 35.348 49.792 34.76 49.792C34.76 49.528 34.712 49.312 34.544 49.192C34.364 49.048 33.824 48.904 33.344 48.82L33.356 48.604C33.908 48.664 34.772 48.76 35.06 48.76C35.312 48.76 35.408 48.712 35.54 48.568C36.032 48.1 36.26 45.16 36.356 40.864H34.136C33.992 44.656 33.716 47.86 29.972 49.948L29.828 49.78C32.948 47.368 33.236 44.296 33.32 40.864H31.22L31.112 40.516H36.236L36.692 39.988ZM44.204 44.548C44.576 43.84 44.888 43.072 45.116 42.376C44.132 42.424 43.268 42.676 42.44 43.3C42.56 43.744 42.728 44.236 42.956 44.668C43.136 45.004 43.364 45.292 43.604 45.52C43.832 45.22 44.036 44.884 44.204 44.548ZM42.368 46.888C42.62 46.708 42.884 46.432 43.148 46.12C42.8 45.736 42.524 45.268 42.32 44.836C42.164 44.488 42.02 44.116 41.912 43.768C41.072 44.62 40.616 45.736 40.616 46.432C40.616 47.104 40.856 47.38 41.192 47.38C41.672 47.38 41.972 47.2 42.368 46.888ZM46.184 41.296L45.992 41.92C48.104 42.136 49.352 43.612 49.352 45.424C49.352 47.296 48.152 49.108 43.928 49.36L43.868 49.072C47.588 48.46 48.5 46.792 48.5 45.244C48.5 43.828 47.432 42.556 45.836 42.388C45.596 43.084 45.296 43.876 44.78 44.848C44.552 45.268 44.348 45.64 44.144 45.952C44.216 45.988 44.276 46.036 44.348 46.072C44.576 46.192 44.78 46.348 44.78 46.588C44.78 46.804 44.624 46.9 44.408 46.9C44.168 46.9 43.88 46.744 43.676 46.588C43.376 46.948 43.064 47.236 42.704 47.512C42.224 47.884 41.684 48.196 41 48.196C40.304 48.196 39.992 47.488 39.992 46.756C39.992 45.112 41.096 43.804 41.744 43.252C41.66 42.964 41.576 42.688 41.492 42.46C41.336 42.004 40.964 41.632 40.4 41.152L40.556 40.984C40.844 41.068 41.144 41.188 41.36 41.332C41.636 41.512 42.056 41.776 42.188 42.304C42.224 42.448 42.272 42.64 42.32 42.832C43.064 42.34 43.964 41.932 45.26 41.896C45.38 41.44 45.476 41.02 45.512 40.696C45.536 40.42 45.404 40.348 45.188 40.288C44.972 40.228 44.744 40.204 44.456 40.204L44.432 39.952C44.624 39.868 44.9 39.784 45.128 39.784C45.68 39.784 46.472 40.252 46.472 40.564C46.472 40.804 46.292 40.972 46.184 41.296ZM52.112 41.584L52.34 41.512C52.508 41.824 52.832 42.112 53.096 42.112C53.72 42.112 56.036 41.416 58.016 40.96C59.396 40.636 60.332 40.468 60.74 40.468C61.052 40.468 61.4 40.516 61.592 40.6C61.856 40.72 61.952 40.852 61.952 41.02C61.952 41.188 61.808 41.332 61.544 41.332C61.316 41.332 60.956 41.296 60.512 41.296C59.936 41.296 59.096 41.368 58.496 41.74C57.956 42.064 56.756 43.18 56.756 45.58C56.756 46.888 57.296 47.428 57.776 47.728C58.556 48.196 59.612 48.124 60.104 48.124C60.392 48.124 60.788 48.328 60.788 48.628C60.788 48.916 60.464 49.024 59.924 49.024C59.228 49.024 58.04 48.976 57.224 48.352C56.468 47.8 56.072 47.08 56.072 45.724C56.072 44.308 56.516 42.724 57.872 41.656C57.956 41.584 57.944 41.512 57.812 41.548C56.468 41.872 54.764 42.436 54.044 42.772C53.804 42.88 53.564 43.072 53.312 43.072C52.868 43.072 52.268 42.544 52.16 42.136C52.112 41.944 52.124 41.764 52.112 41.584ZM69.596 42.268C69.596 41.836 69.464 41.524 69.26 41.164C68.42 41.332 67.604 41.752 66.992 42.352C66.224 43.096 65.756 44.068 65.756 45.124C65.756 46.276 66.284 47.152 66.776 47.152C67.568 47.152 68.672 45.256 69.164 44.116C69.392 43.54 69.596 42.808 69.596 42.268ZM69.392 49.048L69.344 48.772C72.284 48.256 73.7 46.744 73.7 44.572C73.7 42.436 72.116 41.068 70.136 41.068C69.992 41.068 69.848 41.08 69.704 41.092C69.98 41.476 70.22 41.896 70.22 42.364C70.22 42.94 70.088 43.612 69.848 44.296C69.344 45.736 67.952 48.064 66.728 48.064C65.924 48.064 65.084 46.792 65.084 45.316C65.084 44.104 65.66 42.856 66.68 41.944C67.664 41.068 68.9 40.66 70.184 40.66C72.656 40.66 74.564 42.28 74.564 44.764C74.564 46.756 73.316 48.796 69.392 49.048ZM86.204 41.236L86.804 40.48C86.804 40.48 87.5 41.008 87.908 41.392C87.872 41.524 87.776 41.572 87.596 41.572H81.8C81.74 42.352 81.668 43.084 81.548 43.78H85.028L85.508 43.288L86.42 44.056C86.336 44.152 86.192 44.212 85.928 44.248C85.796 46.768 85.472 48.892 84.884 49.432C84.548 49.756 84.044 49.924 83.456 49.912C83.456 49.672 83.396 49.444 83.192 49.336C82.976 49.192 82.304 49.048 81.74 48.952V48.748C82.388 48.808 83.54 48.916 83.84 48.916C84.092 48.916 84.2 48.892 84.344 48.76C84.752 48.424 85.016 46.444 85.136 44.14H81.476C80.972 46.684 79.832 48.604 77.108 49.948L77 49.792C79.94 47.8 80.708 45.124 80.852 41.572H77.024L76.928 41.236H81.98V38.92L83.216 39.052C83.192 39.22 83.072 39.34 82.784 39.376V41.236H86.204ZM92.852 44.488L93.14 44.632C92.888 45.256 92.336 46.612 92.204 47.068C92.084 47.44 92 47.716 92 47.932C92 48.28 92.24 48.664 92.24 48.952C92.24 49.18 92.12 49.312 91.892 49.312C91.676 49.312 91.484 49.12 91.328 48.868C91.004 48.376 90.632 47.296 90.632 46.18C90.632 44.752 91.016 43.732 91.208 43.012C91.352 42.436 91.496 42.016 91.508 41.62C91.52 41.188 91.232 40.792 90.836 40.36L91.028 40.204C91.268 40.312 91.436 40.408 91.64 40.564C91.892 40.768 92.42 41.32 92.42 41.824C92.42 42.1 92.252 42.316 91.964 43.036C91.652 43.708 91.196 44.788 91.196 45.976C91.196 46.612 91.292 46.852 91.388 47.008C91.46 47.152 91.544 47.176 91.652 47.02C91.916 46.6 92.588 45.1 92.852 44.488ZM94.064 45.712L94.34 45.664C94.412 45.952 94.52 46.408 94.688 46.708C95.096 47.416 95.732 47.836 97.208 47.836C98.504 47.836 98.96 47.62 99.248 47.62C99.572 47.62 99.884 47.728 99.884 48.004C99.884 48.484 98.768 48.628 97.472 48.628C95.6 48.628 94.58 48.004 94.22 46.78C94.112 46.42 94.064 46.036 94.064 45.712ZM94.592 42.196L94.472 41.908C95.432 41.38 96.5 41.164 97.34 41.164C98.168 41.164 98.624 41.248 99.008 41.416C99.26 41.524 99.368 41.692 99.368 41.836C99.368 41.992 99.296 42.1 99.044 42.136C98.756 42.172 98.456 42.196 98.06 42.364C97.532 42.604 96.68 43.084 96.092 43.456L95.888 43.24C96.428 42.856 97.28 42.232 97.532 42.016C97.676 41.884 97.664 41.8 96.872 41.8C96.38 41.8 95.6 41.872 94.592 42.196ZM105.8 48.052V46.216C105.224 46.6 104.612 47.128 104.108 47.596C104.552 47.824 105.092 48.1 105.464 48.268C105.716 48.376 105.8 48.28 105.8 48.052ZM106.34 44.8V45.316C107.348 44.8 108.452 44.392 109.664 44.392C111.044 44.392 112.028 45.256 112.028 46.588C112.028 47.812 111.104 48.808 109.592 48.808C108.74 48.808 107.96 48.436 107.336 47.608L107.528 47.416C108.008 47.8 108.608 48.136 109.424 48.136C110.612 48.136 111.272 47.38 111.272 46.432C111.272 45.532 110.696 44.836 109.412 44.836C108.416 44.836 107.3 45.34 106.352 45.88C106.4 47.512 106.532 47.956 106.532 48.388C106.532 48.928 106.208 49.48 105.848 49.48C105.572 49.48 105.548 49.108 105.164 48.76C104.9 48.532 104.324 48.1 103.88 47.812C103.52 48.148 103.364 48.244 103.196 48.244C103.064 48.244 102.932 48.16 102.812 48.04C102.656 47.884 102.596 47.728 102.596 47.548C102.596 47.272 102.668 47.176 102.932 47.2C103.256 47.248 103.412 47.188 103.616 47.068C104.06 46.804 104.996 46.072 105.8 45.616V44.92V43.3C105.368 43.408 104.828 43.516 104.48 43.516C103.892 43.516 103.388 43.408 102.896 42.316L103.1 42.16C103.712 42.76 103.892 42.88 104.528 42.856C104.864 42.844 105.32 42.772 105.8 42.64C105.8 41.752 105.812 40.948 105.8 40.66C105.8 40.396 105.752 40.348 105.56 40.288C105.356 40.216 105.116 40.204 104.804 40.204L104.768 39.976C105.02 39.844 105.308 39.748 105.608 39.748C106.064 39.748 106.832 40.132 106.832 40.42C106.832 40.708 106.652 40.888 106.568 41.272C106.508 41.524 106.46 41.944 106.424 42.448C107.36 42.1 107.756 41.704 108.008 41.692C108.224 41.692 108.536 41.74 108.548 42.004C108.548 42.208 108.416 42.352 108.164 42.472C107.72 42.7 106.964 42.952 106.388 43.132C106.352 43.672 106.34 44.248 106.34 44.8ZM109.436 41.56L109.412 41.248C110.012 41.128 110.48 41.092 111.008 41.188C111.932 41.368 112.796 42.16 112.832 42.916C112.844 43.156 112.76 43.36 112.532 43.384C112.256 43.444 112.148 43.132 111.764 43.204C111.56 43.228 111.092 43.444 110.84 43.564L110.708 43.348C110.948 43.192 111.5 42.856 111.668 42.688C111.8 42.544 111.812 42.448 111.68 42.256C111.2 41.584 110.276 41.5 109.436 41.56ZM120.212 46.396C120.812 46.396 121.124 46.108 121.124 45.28C121.124 44.5 120.74 44.104 120.224 44.104C119.624 44.104 119.24 44.632 119.24 45.244C119.24 45.928 119.66 46.396 120.212 46.396ZM119.6 40.156L119.576 39.916C119.792 39.808 120.08 39.664 120.392 39.664C120.884 39.664 121.628 39.928 121.628 40.228C121.628 40.504 121.448 40.696 121.424 40.996C121.412 41.152 121.412 41.392 121.4 41.68C123.38 41.464 124.148 41.356 124.4 41.356C124.82 41.356 125.444 41.584 125.444 41.968C125.444 42.184 125.336 42.28 125.108 42.28C124.724 42.28 123.812 41.992 121.4 42.196C121.4 42.772 121.412 43.444 121.412 44.044C121.76 44.404 121.916 44.968 121.916 45.664C121.916 47.86 120.26 49.204 117.944 49.78L117.788 49.48C119.252 48.94 120.452 48.088 120.884 46.912C119.708 47.452 118.748 46.528 118.748 45.304C118.748 44.428 119.336 43.612 120.32 43.612C120.5 43.612 120.656 43.636 120.812 43.672C120.8 43.312 120.776 42.796 120.752 42.256C119.576 42.388 118.304 42.664 117.572 42.844C117.032 42.976 116.792 43.168 116.48 43.168C116.084 43.168 115.52 42.628 115.388 42.292C115.304 42.088 115.28 41.812 115.268 41.572L115.496 41.488C115.76 41.884 115.988 42.268 116.396 42.268C116.84 42.28 119.312 41.908 120.728 41.752C120.716 41.32 120.692 40.912 120.668 40.612C120.644 40.372 120.584 40.3 120.392 40.24C120.212 40.192 119.96 40.18 119.6 40.156ZM132.929 46.396C133.529 46.396 133.841 46.108 133.841 45.28C133.841 44.5 133.457 44.104 132.941 44.104C132.341 44.104 131.957 44.632 131.957 45.244C131.957 45.928 132.377 46.396 132.929 46.396ZM132.317 40.156L132.293 39.916C132.509 39.808 132.797 39.664 133.109 39.664C133.601 39.664 134.345 39.928 134.345 40.228C134.345 40.504 134.165 40.696 134.141 40.996C134.129 41.152 134.129 41.392 134.117 41.68C136.097 41.464 136.865 41.356 137.117 41.356C137.537 41.356 138.161 41.584 138.161 41.968C138.161 42.184 138.053 42.28 137.825 42.28C137.441 42.28 136.529 41.992 134.117 42.196C134.117 42.772 134.129 43.444 134.129 44.044C134.477 44.404 134.633 44.968 134.633 45.664C134.633 47.86 132.977 49.204 130.661 49.78L130.505 49.48C131.969 48.94 133.169 48.088 133.601 46.912C132.425 47.452 131.465 46.528 131.465 45.304C131.465 44.428 132.053 43.612 133.037 43.612C133.217 43.612 133.373 43.636 133.529 43.672C133.517 43.312 133.493 42.796 133.469 42.256C132.293 42.388 131.021 42.664 130.289 42.844C129.749 42.976 129.509 43.168 129.197 43.168C128.801 43.168 128.237 42.628 128.105 42.292C128.021 42.088 127.997 41.812 127.985 41.572L128.213 41.488C128.477 41.884 128.705 42.268 129.113 42.268C129.557 42.28 132.029 41.908 133.445 41.752C133.433 41.32 133.409 40.912 133.385 40.612C133.361 40.372 133.301 40.3 133.109 40.24C132.929 40.192 132.677 40.18 132.317 40.156ZM145.121 44.548C145.493 43.84 145.805 43.072 146.033 42.376C145.049 42.424 144.185 42.676 143.357 43.3C143.477 43.744 143.645 44.236 143.873 44.668C144.053 45.004 144.281 45.292 144.521 45.52C144.749 45.22 144.953 44.884 145.121 44.548ZM143.285 46.888C143.537 46.708 143.801 46.432 144.065 46.12C143.717 45.736 143.441 45.268 143.237 44.836C143.081 44.488 142.937 44.116 142.829 43.768C141.989 44.62 141.533 45.736 141.533 46.432C141.533 47.104 141.773 47.38 142.109 47.38C142.589 47.38 142.889 47.2 143.285 46.888ZM147.101 41.296L146.909 41.92C149.021 42.136 150.269 43.612 150.269 45.424C150.269 47.296 149.069 49.108 144.845 49.36L144.785 49.072C148.505 48.46 149.417 46.792 149.417 45.244C149.417 43.828 148.349 42.556 146.753 42.388C146.513 43.084 146.213 43.876 145.697 44.848C145.469 45.268 145.265 45.64 145.061 45.952C145.133 45.988 145.193 46.036 145.265 46.072C145.493 46.192 145.697 46.348 145.697 46.588C145.697 46.804 145.541 46.9 145.325 46.9C145.085 46.9 144.797 46.744 144.593 46.588C144.293 46.948 143.981 47.236 143.621 47.512C143.141 47.884 142.601 48.196 141.917 48.196C141.221 48.196 140.909 47.488 140.909 46.756C140.909 45.112 142.013 43.804 142.661 43.252C142.577 42.964 142.493 42.688 142.409 42.46C142.253 42.004 141.881 41.632 141.317 41.152L141.473 40.984C141.761 41.068 142.061 41.188 142.277 41.332C142.553 41.512 142.973 41.776 143.105 42.304C143.141 42.448 143.189 42.64 143.237 42.832C143.981 42.34 144.881 41.932 146.177 41.896C146.297 41.44 146.393 41.02 146.429 40.696C146.453 40.42 146.321 40.348 146.105 40.288C145.889 40.228 145.661 40.204 145.373 40.204L145.349 39.952C145.541 39.868 145.817 39.784 146.045 39.784C146.597 39.784 147.389 40.252 147.389 40.564C147.389 40.804 147.209 40.972 147.101 41.296Z" fill="#333333"/>
<path d="M225.82 40.02H226.88L226.7 44H216.04V43.28L218.12 43.06C218.18 41.14 218.18 39.2 218.18 37.28V36.16C218.18 34.18 218.18 32.24 218.12 30.34L216.04 30.12V29.42H221.98V30.12L219.9 30.34C219.84 32.26 219.84 34.22 219.84 36.26V37.66C219.84 39.28 219.84 41.2 219.9 43.1H225.18L225.82 40.02ZM235.421 30.12L233.341 30.34C233.281 32.24 233.281 34.18 233.281 36.16V37.26C233.281 39.18 233.281 41.14 233.341 43.06L235.421 43.28V44H229.481V43.28L231.561 43.06C231.621 41.16 231.621 39.22 231.621 37.26V36.16C231.621 34.22 231.621 32.26 231.561 30.34L229.481 30.12V29.42H235.421V30.12ZM252.569 29.42V30.12L250.709 30.38L250.689 44.16H250.029L241.129 31.82L241.149 43.02L243.469 43.28V44H238.329V43.28L240.209 43.04L240.229 30.56L240.049 30.3L238.409 30.1V29.42H241.529L249.809 41L249.789 30.4L247.449 30.12V29.42H252.569ZM265.55 40.22H266.55L266.41 44H255.31V43.28L257.39 43.06C257.45 41.16 257.45 39.22 257.45 37.26V36.16C257.45 34.22 257.45 32.26 257.39 30.34L255.31 30.12V29.42H266.01L266.15 33.18H265.17L264.63 30.3H259.17C259.11 32.18 259.11 34.14 259.11 36.18H262.61L262.91 34.02H263.73V39.08H262.91L262.63 36.98H259.11C259.11 39.2 259.11 41.16 259.17 43.1H265.03L265.55 40.22ZM269.495 31.72L269.875 31.6C270.155 32.12 270.695 32.6 271.135 32.6C272.175 32.6 276.035 31.44 279.335 30.68C281.635 30.14 283.195 29.86 283.875 29.86C284.395 29.86 284.975 29.94 285.295 30.08C285.735 30.28 285.895 30.5 285.895 30.78C285.895 31.06 285.655 31.3 285.215 31.3C284.835 31.3 284.235 31.24 283.495 31.24C282.535 31.24 281.135 31.36 280.135 31.98C279.235 32.52 277.235 34.38 277.235 38.38C277.235 40.56 278.135 41.46 278.935 41.96C280.235 42.74 281.995 42.62 282.815 42.62C283.295 42.62 283.955 42.96 283.955 43.46C283.955 43.94 283.415 44.12 282.515 44.12C281.355 44.12 279.375 44.04 278.015 43C276.755 42.08 276.095 40.88 276.095 38.62C276.095 36.26 276.835 33.62 279.095 31.84C279.235 31.72 279.215 31.6 278.995 31.66C276.755 32.2 273.915 33.14 272.715 33.7C272.315 33.88 271.915 34.2 271.495 34.2C270.755 34.2 269.755 33.32 269.575 32.64C269.495 32.32 269.515 32.02 269.495 31.72ZM283.655 33.04L283.915 32.68C284.915 33.06 285.715 33.44 286.175 33.84C286.715 34.28 286.915 34.66 286.915 35.08C286.915 35.42 286.755 35.6 286.455 35.6C286.135 35.6 285.935 35.14 285.515 34.64C285.055 34.14 284.555 33.66 283.655 33.04ZM281.875 34.36L282.155 34.02C283.155 34.42 283.935 34.9 284.435 35.36C284.915 35.82 285.115 36.16 285.115 36.56C285.115 36.88 284.935 37.08 284.635 37.08C284.335 37.08 284.115 36.62 283.715 36.1C283.275 35.62 282.735 34.98 281.875 34.36ZM303.795 33.18H297.135V35.3H303.795V33.18ZM297.135 40.86H303.795V38.62H297.135V40.86ZM297.135 35.88V38.06H303.795V35.88H297.135ZM297.255 32.6H298.755C298.795 31.98 298.835 31.24 298.875 30.44H290.715L290.535 29.88H298.895C298.935 28.98 298.975 28.04 298.995 27.24L301.015 27.4C300.975 27.68 300.755 27.9 300.355 27.96C300.295 28.54 300.255 29.2 300.195 29.88H305.215L306.275 28.58C306.275 28.58 307.435 29.48 308.175 30.12C308.115 30.34 307.915 30.44 307.635 30.44H300.135C300.075 31.22 300.015 31.98 299.955 32.6H303.595L304.335 31.76L305.955 33.02C305.815 33.18 305.495 33.32 305.115 33.4V41.88C305.095 42.02 304.455 42.36 303.995 42.36H303.795V41.44H297.135V42C297.135 42.16 296.635 42.48 296.075 42.48H295.855V31.94L297.255 32.6ZM305.715 43.68L306.755 42.42C306.755 42.42 307.915 43.28 308.615 43.96C308.555 44.18 308.375 44.28 308.095 44.28H293.115V45.04C293.115 45.24 292.555 45.52 292.055 45.52H291.815V32.92L293.835 33.14C293.775 33.4 293.615 33.6 293.115 33.66V43.68H305.715ZM316.995 34.9L316.835 34.32H323.895C324.395 33.1 324.895 31.48 325.175 30.28L327.255 30.8C327.195 31.04 326.955 31.24 326.515 31.22C326.035 32.14 325.215 33.34 324.415 34.32H327.015L327.955 33.16C327.955 33.16 329.035 33.98 329.655 34.6C329.615 34.82 329.435 34.9 329.155 34.9H316.995ZM319.515 30.44L319.755 30.34C323.115 32.32 321.675 34.9 320.495 33.76C320.495 32.7 319.975 31.32 319.515 30.44ZM317.655 30.16L317.495 29.58H322.355V27.36L324.295 27.56C324.255 27.82 324.075 28 323.615 28.08V29.58H326.875L327.755 28.48C327.755 28.48 328.755 29.26 329.355 29.86C329.295 30.06 329.115 30.16 328.835 30.16H317.655ZM317.915 35.44L317.995 35.72C317.255 36.12 316.335 36.62 315.255 37.2V43.66C315.255 44.72 315.055 45.36 313.355 45.54C313.295 45.14 313.195 44.8 312.975 44.6C312.715 44.38 312.255 44.22 311.475 44.14V43.8C311.475 43.8 313.215 43.94 313.575 43.94C313.915 43.94 314.015 43.84 314.015 43.54V37.84C313.395 38.16 312.735 38.5 312.015 38.84C311.955 39.08 311.795 39.28 311.615 39.36L310.875 37.7C311.515 37.54 312.635 37.2 314.015 36.74V32.4H311.355L311.215 31.8H314.015V27.24L315.995 27.46C315.935 27.74 315.735 27.94 315.255 28V31.8H315.715L316.515 30.68C316.515 30.68 317.435 31.5 317.975 32.08C317.935 32.3 317.755 32.4 317.475 32.4H315.255V36.34C316.115 36.06 317.015 35.76 317.915 35.44ZM325.235 38.14H321.475C321.055 39 320.575 39.92 320.155 40.74C321.495 40.98 322.655 41.26 323.635 41.56C324.395 40.62 324.895 39.5 325.235 38.14ZM326.955 37.58L327.895 36.4C327.895 36.4 328.975 37.22 329.635 37.84C329.575 38.06 329.415 38.14 329.115 38.14H326.695C326.295 39.68 325.715 40.96 324.855 41.98C329.595 43.8 328.995 45.96 327.655 45.42C326.935 44.7 325.655 43.76 323.975 42.86C322.355 44.24 319.955 45.08 316.375 45.56L316.255 45.2C319.295 44.56 321.435 43.68 322.895 42.32C321.995 41.9 320.995 41.48 319.935 41.14C319.775 41.42 319.635 41.7 319.495 41.94C319.175 42.06 318.615 42.02 318.115 41.8C318.675 40.96 319.435 39.54 320.095 38.14H316.875L316.715 37.58H320.355C320.835 36.56 321.235 35.6 321.435 34.98L323.335 35.36C323.235 35.64 323.015 35.82 322.555 35.82C322.375 36.26 322.075 36.88 321.735 37.58H326.955ZM337.795 31.92L338.675 30.76C338.675 30.76 339.675 31.58 340.275 32.18C340.235 32.4 340.035 32.5 339.755 32.5H336.995V34.34C341.355 36.08 340.355 38.8 339.015 37.86C338.755 36.86 337.815 35.6 336.995 34.74V45.06C336.995 45.24 336.435 45.54 335.975 45.54H335.695V35.76C334.835 37.76 333.695 39.58 332.275 41.14L331.995 40.88C333.575 38.56 334.695 35.46 335.355 32.5H332.495L332.335 31.92H335.695V27.26L337.695 27.5C337.635 27.8 337.475 27.98 336.995 28.06V31.92H337.795ZM342.155 43.06H348.195V38.78H342.155V43.06ZM348.195 34.02H342.155V38.18H348.195V34.02ZM348.195 29.36H342.155V33.42H348.195V29.36ZM348.755 27.94L350.375 29.24C350.235 29.4 349.895 29.56 349.495 29.64V44.86C349.475 45 348.855 45.36 348.395 45.36H348.195V43.62H342.155V44.9C342.155 45.08 341.675 45.42 341.075 45.42H340.835V28.14L342.235 28.8H347.995L348.755 27.94ZM360.455 36.56L360.215 36.24C365.135 34.16 365.135 31.24 365.155 27.5L367.075 27.7C367.035 27.94 366.875 28.16 366.475 28.2C366.415 29.66 366.355 31.02 365.875 32.28C366.415 32.42 366.915 32.58 367.355 32.74C368.075 31.56 368.975 29.82 369.375 28.88L371.155 29.8C371.075 29.94 370.815 30.12 370.435 30.04C369.815 30.76 368.695 31.92 367.655 32.86C371.995 34.54 371.595 36.8 370.175 36.26C369.355 35.12 367.295 33.56 365.735 32.62C365.015 34.2 363.555 35.54 360.455 36.56ZM362.715 37.06L363.055 37.08C363.495 39 362.835 40.3 362.155 40.82C361.715 41.16 361.075 41.24 360.855 40.82C360.655 40.44 360.895 40.06 361.275 39.8C361.955 39.38 362.675 38.24 362.715 37.06ZM362.755 28.96H363.115C363.435 30.66 362.935 31.9 362.375 32.42C362.015 32.76 361.395 32.88 361.155 32.5C360.955 32.16 361.175 31.76 361.515 31.52C362.095 31.08 362.715 29.96 362.755 28.96ZM359.255 29.2H354.155L353.995 28.6H357.355L358.215 27.54C358.215 27.54 359.175 28.3 359.775 28.88C359.715 29.1 359.535 29.2 359.255 29.2ZM358.275 31.12L359.155 30.02C359.155 30.02 360.115 30.82 360.735 31.4C360.675 31.6 360.495 31.7 360.215 31.7H353.275L353.115 31.12H358.275ZM354.035 33.66H357.655L358.435 32.68C358.435 32.68 359.315 33.38 359.875 33.92C359.835 34.14 359.655 34.24 359.375 34.24H354.195L354.035 33.66ZM359.375 36.8H354.195L354.035 36.22H357.655L358.435 35.22C358.435 35.22 359.315 35.94 359.875 36.48C359.835 36.7 359.655 36.8 359.375 36.8ZM355.295 43.18H358.155V39.32H355.295V43.18ZM358.635 37.96L360.195 39.16C360.055 39.3 359.775 39.46 359.375 39.54V44.34C359.355 44.48 358.735 44.76 358.315 44.76H358.155V43.78H355.295V45.1C355.295 45.22 354.795 45.52 354.275 45.52H354.075V38.14L355.395 38.72H357.955L358.635 37.96ZM369.455 36.96L371.315 37.94C371.235 38.12 370.975 38.26 370.555 38.18C369.915 38.96 368.715 40.22 367.595 41.16C368.395 42.52 369.675 43.56 371.695 44.28L371.655 44.52C371.015 44.64 370.615 44.88 370.475 45.6C367.635 44.28 366.575 41.88 366.135 38.64C365.815 41.56 364.695 43.92 359.855 45.54L359.635 45.2C365.015 42.98 364.955 39.76 364.975 35.22L366.895 35.44C366.855 35.68 366.695 35.88 366.275 35.94C366.415 37.9 366.735 39.52 367.415 40.84C368.175 39.62 369.055 37.92 369.455 36.96ZM383.395 39.66C384.395 39.66 384.915 39.18 384.915 37.8C384.915 36.5 384.275 35.84 383.415 35.84C382.415 35.84 381.775 36.72 381.775 37.74C381.775 38.88 382.475 39.66 383.395 39.66ZM382.375 29.26L382.335 28.86C382.695 28.68 383.175 28.44 383.695 28.44C384.515 28.44 385.755 28.88 385.755 29.38C385.755 29.84 385.455 30.16 385.415 30.66C385.395 30.92 385.395 31.32 385.375 31.8C388.675 31.44 389.955 31.26 390.375 31.26C391.075 31.26 392.115 31.64 392.115 32.28C392.115 32.64 391.935 32.8 391.555 32.8C390.915 32.8 389.395 32.32 385.375 32.66C385.375 33.62 385.395 34.74 385.395 35.74C385.975 36.34 386.235 37.28 386.235 38.44C386.235 42.1 383.475 44.34 379.615 45.3L379.355 44.8C381.795 43.9 383.795 42.48 384.515 40.52C382.555 41.42 380.955 39.88 380.955 37.84C380.955 36.38 381.935 35.02 383.575 35.02C383.875 35.02 384.135 35.06 384.395 35.12C384.375 34.52 384.335 33.66 384.295 32.76C382.335 32.98 380.215 33.44 378.995 33.74C378.095 33.96 377.695 34.28 377.175 34.28C376.515 34.28 375.575 33.38 375.355 32.82C375.215 32.48 375.175 32.02 375.155 31.62L375.535 31.48C375.975 32.14 376.355 32.78 377.035 32.78C377.775 32.8 381.895 32.18 384.255 31.92C384.235 31.2 384.195 30.52 384.155 30.02C384.115 29.62 384.015 29.5 383.695 29.4C383.395 29.32 382.975 29.3 382.375 29.26ZM404.415 43.44C404.695 43.44 404.975 43.42 405.235 43.4C404.975 41.86 403.995 41.06 402.855 41.06C402.155 41.06 401.615 41.48 401.615 42.12C401.615 42.82 402.475 43.44 404.415 43.44ZM400.075 29.3L400.435 29.24C400.695 29.82 400.955 30.42 401.475 30.42C402.275 30.42 404.795 29.78 405.695 29.52C406.135 29.38 406.195 29.18 406.475 29.18C407.075 29.18 408.175 30.02 408.175 30.56C408.175 30.94 407.715 30.96 407.015 31.58C405.995 32.42 403.335 35 402.435 36C402.295 36.12 402.375 36.28 402.535 36.2C403.455 35.86 404.635 35.5 405.975 35.5C408.575 35.5 410.795 37.2 410.735 39.98C410.695 42.48 408.455 44.54 404.675 44.54C402.435 44.54 400.915 43.64 400.915 42.2C400.915 41.14 401.855 40.32 403.155 40.32C404.595 40.32 406.095 41.24 406.415 43.2C408.415 42.64 409.415 41.24 409.455 39.68C409.515 37.92 408.175 36.16 405.715 36.16C402.835 36.16 400.815 37.96 399.135 40.12C398.835 40.5 398.675 40.62 398.375 40.6C398.135 40.6 397.835 40.3 397.855 39.8C397.875 39.44 398.055 39.16 398.515 38.7C401.655 35.42 405.275 31.98 406.115 30.64C406.295 30.34 406.175 30.26 405.935 30.3C405.295 30.44 403.555 31.06 402.695 31.4C402.315 31.56 402.035 31.86 401.715 31.86C400.955 31.86 400.215 31 400.055 30.42C399.975 30.1 399.995 29.68 400.075 29.3Z" fill="#333333"/>
<path d="M26 63.5H451.5H463" stroke="#333333"/>
<path d="M1 1H26L1 26V1Z" fill="#333333"/>
</svg>
