<svg width="70" height="70" viewBox="0 0 70 70" fill="none" xmlns="http://www.w3.org/2000/svg">
<mask id="path-1-inside-1_430_4349" fill="white">
<path d="M70 35C70 54.33 54.33 70 35 70C15.67 70 0 54.33 0 35C0 15.67 15.67 0 35 0C54.33 0 70 15.67 70 35Z"/>
</mask>
<path d="M70.5 35C70.5 34.6662 70.4954 34.3335 70.4862 34.0019L69.4866 34.0295C69.4955 34.3519 69.5 34.6754 69.5 35H70.5ZM70.3762 32.0141C70.3208 31.3493 70.2471 30.6895 70.1556 30.0355L69.1652 30.1741C69.2542 30.8097 69.3258 31.4509 69.3796 32.0972L70.3762 32.0141ZM69.8243 28.0723C69.695 27.4185 69.5477 26.7712 69.383 26.1309L68.4145 26.38C68.5745 27.0021 68.7176 27.6311 68.8433 28.2664L69.8243 28.0723ZM68.8323 24.2161C68.6302 23.5815 68.4107 22.9545 68.1744 22.3359L67.2402 22.6927C67.4698 23.2938 67.6831 23.9029 67.8795 24.5196L68.8323 24.2161ZM67.4115 20.4961C67.1394 19.8889 66.8507 19.2909 66.5461 18.7024L65.658 19.1621C65.954 19.7339 66.2345 20.3151 66.4989 20.905L67.4115 20.4961ZM65.5813 16.9604C65.243 16.3881 64.8891 15.8263 64.5203 15.2753L63.6893 15.8316C64.0478 16.3671 64.3917 16.9132 64.7204 17.4692L65.5813 16.9604ZM63.3666 13.6521C62.9667 13.1216 62.5523 12.6027 62.1239 12.0959L61.3602 12.7415C61.7765 13.234 62.1793 13.7384 62.568 14.254L63.3666 13.6521ZM60.7965 10.6116C60.3403 10.1292 59.8708 9.65967 59.3885 9.2035L58.7013 9.93004C59.1702 10.3734 59.6266 10.8298 60.07 11.2987L60.7965 10.6116ZM57.9041 7.87608C57.3973 7.44773 56.8784 7.03333 56.3479 6.63345L55.746 7.43201C56.2616 7.82067 56.766 8.22346 57.2585 8.6398L57.9041 7.87608ZM54.7247 5.47973C54.1737 5.11086 53.6119 4.757 53.0396 4.41874L52.5308 5.27958C53.0868 5.6083 53.6329 5.9522 54.1684 6.3107L54.7247 5.47973ZM51.2976 3.45392C50.7091 3.14929 50.1111 2.86064 49.5039 2.58855L49.095 3.50109C49.6849 3.76548 50.2661 4.04597 50.8379 4.34199L51.2976 3.45392ZM47.6641 1.82559C47.0455 1.5893 46.4185 1.3698 45.7839 1.16768L45.4804 2.12052C46.0971 2.31691 46.7062 2.53017 47.3073 2.75976L47.6641 1.82559ZM43.8691 0.617024C43.2288 0.452319 42.5815 0.305033 41.9277 0.175697L41.7336 1.15669C42.3689 1.28236 42.9979 1.42547 43.62 1.5855L43.8691 0.617024ZM39.9645 -0.155558C39.3105 -0.247092 38.6507 -0.320801 37.9859 -0.376181L37.9028 0.620368C38.5491 0.674197 39.1903 0.745837 39.8259 0.83479L39.9645 -0.155558ZM35.9981 -0.486236C35.6665 -0.495392 35.3338 -0.5 35 -0.5V0.5C35.3246 0.5 35.6481 0.504481 35.9705 0.513383L35.9981 -0.486236ZM35 -0.5C34.6662 -0.5 34.3335 -0.495392 34.0019 -0.486236L34.0295 0.513383C34.3519 0.504481 34.6754 0.5 35 0.5V-0.5ZM32.0141 -0.376181C31.3493 -0.320801 30.6895 -0.247092 30.0355 -0.155558L30.1741 0.83479C30.8097 0.745837 31.4509 0.674197 32.0972 0.620368L32.0141 -0.376181ZM28.0723 0.175698C27.4185 0.305033 26.7712 0.452319 26.1309 0.617023L26.38 1.5855C27.0021 1.42547 27.6311 1.28236 28.2664 1.15669L28.0723 0.175698ZM24.2161 1.16768C23.5815 1.3698 22.9545 1.5893 22.3359 1.82559L22.6927 2.75976C23.2938 2.53017 23.9029 2.31691 24.5196 2.12052L24.2161 1.16768ZM20.4961 2.58855C19.8889 2.86064 19.2909 3.14929 18.7024 3.45392L19.1621 4.34199C19.7339 4.04597 20.3151 3.76548 20.905 3.50109L20.4961 2.58855ZM16.9604 4.41874C16.3881 4.757 15.8263 5.11086 15.2753 5.47973L15.8316 6.31069C16.3671 5.9522 16.9132 5.6083 17.4692 5.27958L16.9604 4.41874ZM13.6521 6.63345C13.1216 7.03332 12.6027 7.44773 12.0959 7.87608L12.7415 8.6398C13.234 8.22345 13.7384 7.82067 14.254 7.43201L13.6521 6.63345ZM10.6116 9.2035C10.1292 9.65966 9.65967 10.1292 9.2035 10.6115L9.93004 11.2987C10.3734 10.8298 10.8298 10.3734 11.2987 9.93004L10.6116 9.2035ZM7.87608 12.0959C7.44773 12.6027 7.03333 13.1216 6.63345 13.6521L7.43201 14.254C7.82067 13.7384 8.22346 13.234 8.6398 12.7415L7.87608 12.0959ZM5.47973 15.2753C5.11086 15.8263 4.757 16.3881 4.41874 16.9604L5.27958 17.4692C5.6083 16.9132 5.9522 16.3671 6.3107 15.8316L5.47973 15.2753ZM3.45392 18.7024C3.14929 19.2909 2.86064 19.8889 2.58855 20.4961L3.50109 20.905C3.76548 20.3151 4.04597 19.7339 4.34199 19.1621L3.45392 18.7024ZM1.82559 22.3359C1.5893 22.9545 1.3698 23.5815 1.16768 24.2161L2.12052 24.5196C2.31691 23.9029 2.53017 23.2938 2.75976 22.6927L1.82559 22.3359ZM0.617024 26.1309C0.452319 26.7712 0.305033 27.4185 0.175697 28.0723L1.15669 28.2664C1.28236 27.6311 1.42547 27.0021 1.5855 26.38L0.617024 26.1309ZM-0.155558 30.0355C-0.247092 30.6895 -0.320801 31.3493 -0.376181 32.0141L0.620368 32.0972C0.674197 31.4509 0.745837 30.8097 0.83479 30.1741L-0.155558 30.0355ZM-0.486236 34.0019C-0.495392 34.3335 -0.5 34.6662 -0.5 35H0.5C0.5 34.6754 0.504481 34.3519 0.513383 34.0295L-0.486236 34.0019ZM-0.5 35C-0.5 35.3338 -0.495392 35.6665 -0.486236 35.9981L0.513383 35.9705C0.504481 35.6481 0.5 35.3246 0.5 35H-0.5ZM-0.376181 37.9859C-0.320801 38.6507 -0.247092 39.3105 -0.155558 39.9645L0.83479 39.8259C0.745837 39.1903 0.674197 38.5491 0.620368 37.9028L-0.376181 37.9859ZM0.175698 41.9277C0.305033 42.5815 0.452319 43.2288 0.617023 43.8691L1.5855 43.62C1.42547 42.9979 1.28236 42.3689 1.15669 41.7336L0.175698 41.9277ZM1.16768 45.7839C1.3698 46.4185 1.5893 47.0455 1.82559 47.6641L2.75976 47.3073C2.53017 46.7062 2.31691 46.0971 2.12052 45.4804L1.16768 45.7839ZM2.58855 49.5039C2.86064 50.1111 3.14929 50.7091 3.45392 51.2976L4.34199 50.8379C4.04597 50.2661 3.76548 49.6849 3.50109 49.095L2.58855 49.5039ZM4.41874 53.0396C4.757 53.6119 5.11086 54.1737 5.47973 54.7247L6.31069 54.1684C5.9522 53.6329 5.6083 53.0868 5.27958 52.5308L4.41874 53.0396ZM6.63345 56.3479C7.03332 56.8784 7.44773 57.3973 7.87608 57.9041L8.6398 57.2585C8.22345 56.766 7.82067 56.2616 7.43201 55.746L6.63345 56.3479ZM9.2035 59.3884C9.65966 59.8708 10.1292 60.3403 10.6115 60.7965L11.2987 60.07C10.8298 59.6266 10.3734 59.1702 9.93004 58.7013L9.2035 59.3884ZM12.0959 62.1239C12.6027 62.5523 13.1216 62.9667 13.6521 63.3665L14.254 62.568C13.7384 62.1793 13.234 61.7765 12.7415 61.3602L12.0959 62.1239ZM15.2753 64.5203C15.8263 64.8891 16.3881 65.243 16.9604 65.5813L17.4692 64.7204C16.9132 64.3917 16.3671 64.0478 15.8316 63.6893L15.2753 64.5203ZM18.7024 66.5461C19.2909 66.8507 19.8889 67.1394 20.4961 67.4115L20.905 66.4989C20.3151 66.2345 19.7339 65.954 19.1621 65.658L18.7024 66.5461ZM22.3359 68.1744C22.9545 68.4107 23.5815 68.6302 24.2161 68.8323L24.5196 67.8795C23.9029 67.6831 23.2938 67.4698 22.6927 67.2402L22.3359 68.1744ZM26.1309 69.383C26.7712 69.5477 27.4185 69.695 28.0723 69.8243L28.2664 68.8433C27.6311 68.7176 27.0021 68.5745 26.38 68.4145L26.1309 69.383ZM30.0355 70.1556C30.6895 70.2471 31.3493 70.3208 32.0141 70.3762L32.0972 69.3796C31.4509 69.3258 30.8097 69.2542 30.1741 69.1652L30.0355 70.1556ZM34.0019 70.4862C34.3335 70.4954 34.6662 70.5 35 70.5V69.5C34.6754 69.5 34.3519 69.4955 34.0295 69.4866L34.0019 70.4862ZM35 70.5C35.3338 70.5 35.6665 70.4954 35.9981 70.4862L35.9705 69.4866C35.6481 69.4955 35.3246 69.5 35 69.5V70.5ZM37.9859 70.3762C38.6507 70.3208 39.3105 70.2471 39.9645 70.1556L39.8259 69.1652C39.1903 69.2542 38.5491 69.3258 37.9028 69.3796L37.9859 70.3762ZM41.9277 69.8243C42.5815 69.695 43.2288 69.5477 43.8691 69.383L43.62 68.4145C42.9979 68.5745 42.3689 68.7176 41.7336 68.8433L41.9277 69.8243ZM45.7839 68.8323C46.4185 68.6302 47.0455 68.4107 47.6641 68.1744L47.3073 67.2402C46.7062 67.4698 46.0971 67.6831 45.4804 67.8795L45.7839 68.8323ZM49.5039 67.4115C50.1111 67.1394 50.7091 66.8507 51.2976 66.5461L50.8379 65.658C50.2661 65.954 49.6849 66.2345 49.095 66.4989L49.5039 67.4115ZM53.0396 65.5813C53.6119 65.243 54.1737 64.8891 54.7247 64.5203L54.1684 63.6893C53.6329 64.0478 53.0868 64.3917 52.5308 64.7204L53.0396 65.5813ZM56.3479 63.3666C56.8784 62.9667 57.3973 62.5523 57.9041 62.1239L57.2585 61.3602C56.766 61.7765 56.2616 62.1793 55.746 62.568L56.3479 63.3666ZM59.3884 60.7965C59.8708 60.3403 60.3403 59.8708 60.7965 59.3885L60.07 58.7013C59.6266 59.1702 59.1702 59.6266 58.7013 60.07L59.3884 60.7965ZM62.1239 57.9041C62.5523 57.3973 62.9667 56.8784 63.3665 56.3479L62.568 55.746C62.1793 56.2616 61.7765 56.766 61.3602 57.2585L62.1239 57.9041ZM64.5203 54.7247C64.8891 54.1737 65.243 53.6119 65.5813 53.0396L64.7204 52.5308C64.3917 53.0868 64.0478 53.6329 63.6893 54.1684L64.5203 54.7247ZM66.5461 51.2976C66.8507 50.7091 67.1394 50.1111 67.4115 49.5039L66.4989 49.095C66.2345 49.6849 65.954 50.2661 65.658 50.8379L66.5461 51.2976ZM68.1744 47.6641C68.4107 47.0455 68.6302 46.4185 68.8323 45.7839L67.8795 45.4804C67.6831 46.0971 67.4698 46.7062 67.2402 47.3073L68.1744 47.6641ZM69.383 43.8691C69.5477 43.2288 69.695 42.5815 69.8243 41.9277L68.8433 41.7336C68.7176 42.3689 68.5745 42.9979 68.4145 43.62L69.383 43.8691ZM70.1556 39.9645C70.2471 39.3105 70.3208 38.6507 70.3762 37.9859L69.3796 37.9028C69.3258 38.5491 69.2542 39.1903 69.1652 39.8259L70.1556 39.9645ZM70.4862 35.9981C70.4954 35.6665 70.5 35.3338 70.5 35H69.5C69.5 35.3246 69.4955 35.6481 69.4866 35.9705L70.4862 35.9981ZM71 35C71 34.6616 70.9953 34.3243 70.986 33.9881L68.9868 34.0433C68.9956 34.3611 69 34.68 69 35H71ZM70.8745 31.9726C70.8183 31.2984 70.7436 30.6295 70.6507 29.9662L68.67 30.2434C68.7577 30.8698 68.8283 31.5017 68.8814 32.1387L70.8745 31.9726ZM70.3148 27.9753C70.1836 27.3122 70.0343 26.6557 69.8672 26.0063L67.9303 26.5045C68.088 27.1176 68.229 27.7374 68.3528 28.3634L70.3148 27.9753ZM69.3087 24.0644C69.1038 23.4207 68.8811 22.7849 68.6415 22.1575L66.7732 22.8711C66.9994 23.4634 67.2095 24.0637 67.4031 24.6713L69.3087 24.0644ZM67.8677 20.2916C67.5918 19.6759 67.299 19.0693 66.9901 18.4725L65.214 19.392C65.5057 19.9555 65.7821 20.5282 66.0426 21.1095L67.8677 20.2916ZM66.0117 16.7059C65.6686 16.1256 65.3098 15.5559 64.9358 14.9971L63.2738 16.1098C63.6271 16.6375 63.966 17.1757 64.29 17.7237L66.0117 16.7059ZM63.7658 13.3512C63.3603 12.8132 62.9401 12.287 62.5058 11.7732L60.9783 13.0642C61.3887 13.5497 61.7857 14.0468 62.1687 14.555L63.7658 13.3512ZM61.1598 10.268C60.6972 9.7789 60.2211 9.30278 59.732 8.84023L58.3578 10.2933C58.8199 10.7303 59.2697 11.1802 59.7067 11.6422L61.1598 10.268ZM58.2268 7.49422C57.713 7.05987 57.1868 6.63966 56.6488 6.23417L55.445 7.8313C55.9532 8.21434 56.4503 8.61132 56.9358 9.02166L58.2268 7.49422ZM55.0029 5.06424C54.4441 4.69019 53.8744 4.33135 53.2941 3.98832L52.2763 5.71C52.8243 6.03396 53.3625 6.37287 53.8902 6.72618L55.0029 5.06424ZM51.5275 3.00989C50.9307 2.70096 50.3241 2.40822 49.7084 2.13227L48.8905 3.95736C49.4718 4.2179 50.0445 4.4943 50.608 4.78602L51.5275 3.00989ZM47.8425 1.3585C47.2151 1.11886 46.5793 0.896251 45.9356 0.691253L45.3287 2.59694C45.9363 2.79046 46.5366 3.00061 47.1289 3.22685L47.8425 1.3585ZM43.9937 0.132785C43.3443 -0.0342561 42.6878 -0.18363 42.0247 -0.314797L41.6366 1.64718C42.2626 1.77102 42.8824 1.91205 43.4955 2.06974L43.9937 0.132785ZM40.0338 -0.650732C39.3705 -0.743556 38.7016 -0.8183 38.0274 -0.874456L37.8613 1.11864C38.4983 1.1717 39.1302 1.2423 39.7566 1.32996L40.0338 -0.650732ZM36.0119 -0.986046C35.6757 -0.995329 35.3384 -1 35 -1V1C35.32 1 35.6389 1.00442 35.9567 1.01319L36.0119 -0.986046ZM35 -1C34.6616 -1 34.3243 -0.995329 33.9881 -0.986046L34.0433 1.01319C34.3611 1.00442 34.68 1 35 1V-1ZM31.9726 -0.874456C31.2984 -0.8183 30.6295 -0.743557 29.9662 -0.650733L30.2434 1.32996C30.8698 1.2423 31.5017 1.1717 32.1387 1.11864L31.9726 -0.874456ZM27.9753 -0.314796C27.3122 -0.18363 26.6557 -0.0342563 26.0063 0.132785L26.5045 2.06974C27.1176 1.91205 27.7374 1.77102 28.3634 1.64718L27.9753 -0.314796ZM24.0644 0.691253C23.4207 0.896251 22.7849 1.11886 22.1575 1.3585L22.8711 3.22685C23.4634 3.00061 24.0637 2.79046 24.6713 2.59694L24.0644 0.691253ZM20.2916 2.13227C19.6759 2.40822 19.0693 2.70096 18.4725 3.00989L19.392 4.78602C19.9555 4.4943 20.5282 4.2179 21.1095 3.95736L20.2916 2.13227ZM16.7059 3.98832C16.1256 4.33135 15.5559 4.69019 14.9971 5.06424L16.1098 6.72618C16.6375 6.37287 17.1757 6.03396 17.7237 5.71L16.7059 3.98832ZM13.3512 6.23417C12.8132 6.63965 12.287 7.05987 11.7732 7.49422L13.0642 9.02166C13.5497 8.61131 14.0468 8.21434 14.555 7.83129L13.3512 6.23417ZM10.268 8.84022C9.7789 9.30278 9.30278 9.7789 8.84023 10.268L10.2933 11.6422C10.7303 11.1801 11.1802 10.7303 11.6422 10.2933L10.268 8.84022ZM7.49422 11.7732C7.05987 12.287 6.63966 12.8132 6.23417 13.3512L7.8313 14.555C8.21434 14.0468 8.61132 13.5497 9.02166 13.0642L7.49422 11.7732ZM5.06424 14.9971C4.69019 15.5559 4.33135 16.1256 3.98832 16.7059L5.71 17.7237C6.03396 17.1757 6.37287 16.6375 6.72618 16.1098L5.06424 14.9971ZM3.00989 18.4725C2.70096 19.0693 2.40822 19.6759 2.13227 20.2916L3.95736 21.1095C4.2179 20.5282 4.4943 19.9555 4.78602 19.392L3.00989 18.4725ZM1.3585 22.1575C1.11886 22.7849 0.896251 23.4207 0.691253 24.0644L2.59694 24.6713C2.79046 24.0637 3.00061 23.4634 3.22685 22.8711L1.3585 22.1575ZM0.132785 26.0063C-0.0342561 26.6557 -0.18363 27.3122 -0.314797 27.9753L1.64718 28.3634C1.77102 27.7374 1.91205 27.1176 2.06974 26.5045L0.132785 26.0063ZM-0.650732 29.9662C-0.743556 30.6295 -0.8183 31.2984 -0.874456 31.9726L1.11864 32.1387C1.1717 31.5017 1.2423 30.8698 1.32996 30.2434L-0.650732 29.9662ZM-0.986046 33.9881C-0.995329 34.3243 -1 34.6616 -1 35H1C1 34.68 1.00442 34.3611 1.01319 34.0433L-0.986046 33.9881ZM-1 35C-1 35.3384 -0.995329 35.6757 -0.986046 36.0119L1.01319 35.9567C1.00442 35.6389 1 35.32 1 35H-1ZM-0.874456 38.0274C-0.8183 38.7016 -0.743557 39.3705 -0.650733 40.0338L1.32996 39.7566C1.2423 39.1302 1.1717 38.4983 1.11864 37.8613L-0.874456 38.0274ZM-0.314796 42.0247C-0.18363 42.6878 -0.0342563 43.3443 0.132785 43.9937L2.06974 43.4955C1.91205 42.8824 1.77102 42.2626 1.64718 41.6366L-0.314796 42.0247ZM0.691253 45.9356C0.896251 46.5793 1.11886 47.2151 1.3585 47.8425L3.22685 47.1289C3.00061 46.5366 2.79046 45.9363 2.59694 45.3287L0.691253 45.9356ZM2.13227 49.7084C2.40822 50.3241 2.70096 50.9307 3.00989 51.5275L4.78602 50.608C4.4943 50.0445 4.2179 49.4718 3.95736 48.8905L2.13227 49.7084ZM3.98832 53.2941C4.33135 53.8744 4.69019 54.4441 5.06424 55.0029L6.72618 53.8902C6.37287 53.3625 6.03396 52.8243 5.71 52.2763L3.98832 53.2941ZM6.23417 56.6488C6.63965 57.1868 7.05987 57.713 7.49422 58.2268L9.02166 56.9358C8.61131 56.4503 8.21434 55.9532 7.83129 55.445L6.23417 56.6488ZM8.84022 59.732C9.30278 60.2211 9.7789 60.6972 10.268 61.1598L11.6422 59.7067C11.1801 59.2697 10.7303 58.8198 10.2933 58.3578L8.84022 59.732ZM11.7732 62.5058C12.287 62.9401 12.8132 63.3603 13.3512 63.7658L14.555 62.1687C14.0468 61.7857 13.5497 61.3887 13.0642 60.9783L11.7732 62.5058ZM14.9971 64.9358C15.5559 65.3098 16.1256 65.6686 16.7059 66.0117L17.7237 64.29C17.1757 63.966 16.6375 63.6271 16.1098 63.2738L14.9971 64.9358ZM18.4725 66.9901C19.0693 67.299 19.6759 67.5918 20.2916 67.8677L21.1095 66.0426C20.5282 65.7821 19.9555 65.5057 19.392 65.214L18.4725 66.9901ZM22.1575 68.6415C22.7849 68.8811 23.4207 69.1038 24.0644 69.3087L24.6713 67.4031C24.0637 67.2095 23.4634 66.9994 22.8711 66.7732L22.1575 68.6415ZM26.0063 69.8672C26.6557 70.0343 27.3122 70.1836 27.9753 70.3148L28.3634 68.3528C27.7374 68.229 27.1176 68.088 26.5045 67.9303L26.0063 69.8672ZM29.9662 70.6507C30.6295 70.7436 31.2984 70.8183 31.9726 70.8745L32.1387 68.8814C31.5017 68.8283 30.8698 68.7577 30.2434 68.67L29.9662 70.6507ZM33.9881 70.986C34.3243 70.9953 34.6616 71 35 71V69C34.68 69 34.3611 68.9956 34.0433 68.9868L33.9881 70.986ZM35 71C35.3384 71 35.6757 70.9953 36.0119 70.986L35.9567 68.9868C35.6389 68.9956 35.32 69 35 69V71ZM38.0274 70.8745C38.7016 70.8183 39.3705 70.7436 40.0338 70.6507L39.7566 68.67C39.1302 68.7577 38.4983 68.8283 37.8613 68.8814L38.0274 70.8745ZM42.0247 70.3148C42.6878 70.1836 43.3443 70.0343 43.9937 69.8672L43.4955 67.9303C42.8824 68.088 42.2626 68.229 41.6366 68.3528L42.0247 70.3148ZM45.9356 69.3087C46.5793 69.1038 47.2151 68.8811 47.8425 68.6415L47.1289 66.7732C46.5366 66.9994 45.9363 67.2095 45.3287 67.4031L45.9356 69.3087ZM49.7084 67.8677C50.3241 67.5918 50.9307 67.299 51.5275 66.9901L50.608 65.214C50.0445 65.5057 49.4718 65.7821 48.8905 66.0426L49.7084 67.8677ZM53.2941 66.0117C53.8744 65.6686 54.4441 65.3098 55.0029 64.9358L53.8902 63.2738C53.3625 63.6271 52.8243 63.966 52.2763 64.29L53.2941 66.0117ZM56.6488 63.7658C57.1868 63.3603 57.713 62.9401 58.2268 62.5058L56.9358 60.9783C56.4503 61.3887 55.9532 61.7857 55.445 62.1687L56.6488 63.7658ZM59.732 61.1598C60.2211 60.6972 60.6972 60.2211 61.1598 59.732L59.7067 58.3578C59.2697 58.8199 58.8198 59.2697 58.3578 59.7067L59.732 61.1598ZM62.5058 58.2268C62.9401 57.713 63.3603 57.1868 63.7658 56.6488L62.1687 55.445C61.7857 55.9532 61.3887 56.4503 60.9783 56.9358L62.5058 58.2268ZM64.9358 55.0029C65.3098 54.4441 65.6686 53.8744 66.0117 53.2941L64.29 52.2763C63.966 52.8243 63.6271 53.3625 63.2738 53.8902L64.9358 55.0029ZM66.9901 51.5275C67.299 50.9307 67.5918 50.3241 67.8677 49.7084L66.0426 48.8905C65.7821 49.4718 65.5057 50.0445 65.214 50.608L66.9901 51.5275ZM68.6415 47.8425C68.8811 47.2151 69.1038 46.5793 69.3087 45.9356L67.4031 45.3287C67.2095 45.9363 66.9994 46.5366 66.7732 47.1289L68.6415 47.8425ZM69.8672 43.9937C70.0343 43.3443 70.1836 42.6878 70.3148 42.0247L68.3528 41.6366C68.229 42.2626 68.088 42.8824 67.9303 43.4955L69.8672 43.9937ZM70.6507 40.0338C70.7436 39.3705 70.8183 38.7016 70.8745 38.0274L68.8814 37.8613C68.8283 38.4983 68.7577 39.1302 68.67 39.7566L70.6507 40.0338ZM70.986 36.0119C70.9953 35.6757 71 35.3384 71 35H69C69 35.32 68.9956 35.6389 68.9868 35.9567L70.986 36.0119Z" fill="#333333" mask="url(#path-1-inside-1_430_4349)"/>
<path d="M28.1283 53V44.288H26.4843V43.28H31.0803V44.288H29.4843V53H28.1283ZM35.1013 53.108C34.4453 53.108 33.9213 52.98 33.5293 52.724C33.1373 52.468 32.8573 52.104 32.6893 51.632C32.5213 51.152 32.4373 50.592 32.4373 49.952V46.268C32.4373 45.628 32.5213 45.08 32.6893 44.624C32.8653 44.16 33.1453 43.808 33.5293 43.568C33.9213 43.32 34.4453 43.196 35.1013 43.196C35.7573 43.196 36.2773 43.32 36.6613 43.568C37.0453 43.816 37.3213 44.168 37.4893 44.624C37.6653 45.08 37.7533 45.628 37.7533 46.268V49.964C37.7533 50.596 37.6653 51.148 37.4893 51.62C37.3213 52.092 37.0453 52.46 36.6613 52.724C36.2773 52.98 35.7573 53.108 35.1013 53.108ZM35.1013 52.04C35.4613 52.04 35.7333 51.968 35.9173 51.824C36.1013 51.672 36.2253 51.464 36.2893 51.2C36.3533 50.928 36.3853 50.612 36.3853 50.252V45.992C36.3853 45.632 36.3533 45.324 36.2893 45.068C36.2253 44.804 36.1013 44.604 35.9173 44.468C35.7333 44.324 35.4613 44.252 35.1013 44.252C34.7413 44.252 34.4653 44.324 34.2733 44.468C34.0893 44.604 33.9653 44.804 33.9013 45.068C33.8373 45.324 33.8053 45.632 33.8053 45.992V50.252C33.8053 50.612 33.8373 50.928 33.9013 51.2C33.9653 51.464 34.0893 51.672 34.2733 51.824C34.4653 51.968 34.7413 52.04 35.1013 52.04ZM39.6861 53V43.28H42.0981C42.6821 43.28 43.1461 43.388 43.4901 43.604C43.8421 43.812 44.0981 44.116 44.2581 44.516C44.4181 44.916 44.4981 45.4 44.4981 45.968C44.4981 46.48 44.4061 46.924 44.2221 47.3C44.0461 47.676 43.7821 47.968 43.4301 48.176C43.0781 48.376 42.6381 48.476 42.1101 48.476H41.0421V53H39.6861ZM41.0421 47.504H41.6661C42.0581 47.504 42.3661 47.46 42.5901 47.372C42.8141 47.284 42.9741 47.132 43.0701 46.916C43.1661 46.692 43.2141 46.38 43.2141 45.98C43.2141 45.516 43.1781 45.16 43.1061 44.912C43.0421 44.664 42.9021 44.492 42.6861 44.396C42.4701 44.3 42.1341 44.252 41.6781 44.252H41.0421V47.504Z" fill="#333333"/>
<path d="M24.1177 35V25.28H26.5297C27.1137 25.28 27.5777 25.388 27.9217 25.604C28.2737 25.812 28.5297 26.116 28.6897 26.516C28.8497 26.916 28.9297 27.4 28.9297 27.968C28.9297 28.48 28.8377 28.924 28.6537 29.3C28.4777 29.676 28.2137 29.968 27.8617 30.176C27.5097 30.376 27.0697 30.476 26.5417 30.476H25.4737V35H24.1177ZM25.4737 29.504H26.0977C26.4897 29.504 26.7977 29.46 27.0217 29.372C27.2457 29.284 27.4057 29.132 27.5017 28.916C27.5977 28.692 27.6457 28.38 27.6457 27.98C27.6457 27.516 27.6097 27.16 27.5377 26.912C27.4737 26.664 27.3337 26.492 27.1177 26.396C26.9017 26.3 26.5657 26.252 26.1097 26.252H25.4737V29.504ZM29.4983 35L31.5623 25.28H32.8703L34.9463 35H33.6623L33.2183 32.552H31.2383L30.7703 35H29.4983ZM31.4183 31.58H33.0383L32.2223 27.2L31.4183 31.58ZM38.8017 35.12C38.1937 35.12 37.7057 34.992 37.3377 34.736C36.9777 34.472 36.7137 34.092 36.5457 33.596C36.3857 33.1 36.3057 32.504 36.3057 31.808V28.556C36.3057 27.844 36.3777 27.24 36.5217 26.744C36.6737 26.24 36.9377 25.856 37.3137 25.592C37.6977 25.328 38.2297 25.196 38.9097 25.196C39.5177 25.196 40.0057 25.3 40.3737 25.508C40.7497 25.708 41.0217 26.02 41.1897 26.444C41.3577 26.86 41.4417 27.388 41.4417 28.028V28.388H40.1697V28.088C40.1697 27.664 40.1417 27.32 40.0857 27.056C40.0297 26.784 39.9137 26.584 39.7377 26.456C39.5697 26.32 39.3017 26.252 38.9337 26.252C38.5337 26.252 38.2417 26.344 38.0577 26.528C37.8817 26.712 37.7697 26.964 37.7217 27.284C37.6817 27.596 37.6617 27.952 37.6617 28.352V31.952C37.6617 32.416 37.6937 32.804 37.7577 33.116C37.8297 33.428 37.9617 33.66 38.1537 33.812C38.3457 33.964 38.6177 34.04 38.9697 34.04C39.3217 34.04 39.5937 33.956 39.7857 33.788C39.9777 33.62 40.1097 33.372 40.1817 33.044C40.2537 32.716 40.2897 32.308 40.2897 31.82V31.148H39.0537V30.188H41.5137V35H40.6617L40.5297 33.884C40.4017 34.244 40.2017 34.54 39.9297 34.772C39.6577 35.004 39.2817 35.12 38.8017 35.12ZM43.5076 35V25.28H47.2756V26.288H44.8636V29.504H46.8196V30.464H44.8636V34.028H47.2996V35H43.5076Z" fill="#333333"/>
<path d="M35.5 13L37.6651 16.75H33.3349L35.5 13Z" fill="#333333"/>
</svg>
